0
SECTION
2
HEADER
9
$INSUNITS
70
4
9
$ACADVER
1
AC1014
9
$HANDSEED
5
FFFF
0
ENDSEC
0
SECTION
2
TABLES
0
TABLE
2
VPORT
5
8
100
AcDbSymbolTable
0
ENDTAB
0
TABLE
2
LTYPE
5
5
100
AcDbSymbolTable
0
LTYPE
5
14
100
AcDbSymbolTableRecord
100
AcDbLinetypeTableRecord
2
BYBLOCK
70
0
0
LTYPE
5
15
100
AcDbSymbolTableRecord
100
AcDbLinetypeTableRecord
2
BYLAYER
70
0
0
ENDTAB
0
TABLE
2
LAYER
5
2
100
AcDbSymbolTable
70
2
0
LAYER
5
50
100
AcDbSymbolTableRecord
100
AcDbLayerTableRecord
2
0
70
0
6
CONTINUOUS
0
ENDTAB
0
TABLE
2
STYLE
5
3
100
AcDbSymbolTable
70
1
0
STYLE
5
11
100
AcDbSymbolTableRecord
100
AcDbTextStyleTableRecord
2
STANDARD
70
0
0
ENDTAB
0
TABLE
2
VIEW
5
6
100
AcDbSymbolTable
70
0
0
ENDTAB
0
TABLE
2
UCS
5
7
100
AcDbSymbolTable
70
0
0
ENDTAB
0
TABLE
2
APPID
5
9
100
AcDbSymbolTable
70
2
0
APPID
5
12
100
AcDbSymbolTableRecord
100
AcDbRegAppTableRecord
2
ACAD
70
0
0
ENDTAB
0
TABLE
2
DIMSTYLE
5
A
100
AcDbSymbolTable
70
1
0
ENDTAB
0
TABLE
2
BLOCK_RECORD
5
1
100
AcDbSymbolTable
70
1
0
BLOCK_RECORD
5
1F
100
AcDbSymbolTableRecord
100
AcDbBlockTableRecord
2
*MODEL_SPACE
0
BLOCK_RECORD
5
1B
100
AcDbSymbolTableRecord
100
AcDbBlockTableRecord
2
*PAPER_SPACE
0
ENDTAB
0
ENDSEC
0
SECTION
2
BLOCKS
0
BLOCK
5
20
100
AcDbEntity
100
AcDbBlockBegin
2
*MODEL_SPACE
0
ENDBLK
5
21
100
AcDbEntity
100
AcDbBlockEnd
0
BLOCK
5
1C
100
AcDbEntity
100
AcDbBlockBegin
2
*PAPER_SPACE
0
ENDBLK
5
1D
100
AcDbEntity
100
AcDbBlockEnd
0
ENDSEC
0
SECTION
2
ENTITIES
0
CIRCLE
5
100
100
AcDbEntity
8
0
100
AcDbCircle
10
97.5843537368971
20
-20.585975761445958
30
2.7381383986045463e-14
40
2.5
210
1.2360282485880789e-32
220
-1.2246467991473532e-16
230
-1
0
LWPOLYLINE
5
101
100
AcDbEntity
8
0
100
AcDbPolyline
90
4
70
1
43
0.0
10
-105.32244558680033
20
-26.66356813839311
10
-94.833081895744087
20
-26.663568138393252
10
-94.833081895744044
20
-88.114981136555613
10
-105.32244558680031
20
-88.114981136555613
0
LWPOLYLINE
5
102
100
AcDbEntity
8
0
100
AcDbPolyline
90
16
70
1
43
0.0
10
-90.634352602546201
20
-218.58596784892967
42
-0.41421356237308771
10
-95.634352602546159
20
-223.58596784892956
10
-205.6343526025463
20
-223.58596784892956
42
-0.41421356237309298
10
-210.63435260254619
20
-218.58596784892964
10
-210.63435260254622
20
-18.585967848929386
42
-0.41421356237310752
10
-205.6343526025463
20
-13.585967848929386
10
-95.634352602546244
20
-13.58596784892935
42
-0.4142135623730992
10
-90.634352602546244
20
-18.58596784892935
10
-90.634352602546215
20
-91.515960888625074
10
-116.64434271405182
20
-91.51596088862506
42
0.41421356237310891
10
-117.39434271405173
20
-92.265960888624875
10
-117.39434271405173
20
-107.26411441664597
42
-0.51173408120432939
10
-121.99920095987694
20
-110.5851516426692
42
3.4051385389944309
10
-113.51668885417499
20
-121.11032748881536
42
-0.44559313581798188
10
-108.55092448445916
20
-115.57606207948731
10
-90.634352602546215
20
-115.55596184047414
0
CIRCLE
5
103
100
AcDbEntity
8
0
100
AcDbCircle
10
114.2945783836941
20
-177.96773101441909
30
2.7381383986045463e-14
40
12.5
210
1.2360282485880789e-32
220
-1.2246467991473532e-16
230
-1
0
CIRCLE
5
104
100
AcDbEntity
8
0
100
AcDbCircle
10
97.584353736897043
20
-217.18597138050461
30
2.738138398604546e-14
40
2.5
210
1.2360282485880789e-32
220
-1.2246467991473532e-16
230
-1
0
CIRCLE
5
105
100
AcDbEntity
8
0
100
AcDbCircle
10
190.45367441243059
20
-105.00978993947683
30
2.738138398604546e-14
40
15.5
210
1.2360282485880789e-32
220
-1.2246467991473532e-16
230
-1
0
CIRCLE
5
106
100
AcDbEntity
8
0
100
AcDbCircle
10
145.86959582784294
20
-201.50590778490368
30
2.7381383986045457e-14
40
12.5
210
1.2360282485880789e-32
220
-1.2246467991473532e-16
230
-1
0
CIRCLE
5
107
100
AcDbEntity
8
0
100
AcDbCircle
10
137.35559926094754
20
-87.507660525561533
30
2.7381383986045457e-14
40
12.5
210
1.2360282485880789e-32
220
-1.2246467991473532e-16
230
-1
0
CIRCLE
5
108
100
AcDbEntity
8
0
100
AcDbCircle
10
203.58415128460891
20
-217.18597138050467
30
2.738138398604546e-14
40
2.5
210
1.2360282485880789e-32
220
-1.2246467991473532e-16
230
-1
0
CIRCLE
5
109
100
AcDbEntity
8
0
100
AcDbCircle
10
125.8800201974166
20
-31.81594922872808
30
2.738138398604546e-14
40
12.5
210
1.2360282485880789e-32
220
-1.2246467991473532e-16
230
-1
0
CIRCLE
5
110
100
AcDbEntity
8
0
100
AcDbCircle
10
114.53506188939025
20
-206.94602973384542
30
2.7381383986045463e-14
40
12.5
210
1.2360282485880789e-32
220
-1.2246467991473532e-16
230
-1
0
CIRCLE
5
111
100
AcDbEntity
8
0
100
AcDbCircle
10
114.41643837537404
20
-149.01331595761124
30
2.738138398604546e-14
40
12.5
210
1.2360282485880789e-32
220
-1.2246467991473532e-16
230
-1
0
CIRCLE
5
112
100
AcDbEntity
8
0
100
AcDbCircle
10
203.5843513676125
20
-20.585975761445994
30
2.7381383986045457e-14
40
2.5
210
1.2360282485880789e-32
220
-1.2246467991473532e-16
230
-1
0
CIRCLE
5
113
100
AcDbEntity
8
0
100
AcDbCircle
10
145.87422200738021
20
-172.29475438329496
30
2.7381383986045463e-14
40
12.5
210
1.2360282485880789e-32
220
-1.2246467991473532e-16
230
-1
0
CIRCLE
5
114
100
AcDbEntity
8
0
100
AcDbCircle
10
156.97877431544282
20
-116.83030061564908
30
2.7381383986045463e-14
40
12.5
210
1.2360282485880789e-32
220
-1.2246467991473532e-16
230
-1
0
CIRCLE
5
115
100
AcDbEntity
8
0
100
AcDbCircle
10
126.0044283373101
20
-60.906061201542734
30
2.7381383986045457e-14
40
12.5
210
1.2360282485880789e-32
220
-1.2246467991473532e-16
230
-1
0
CIRCLE
5
116
100
AcDbEntity
8
0
100
AcDbCircle
10
145.86977049187672
20
-143.44842908081202
30
2.7381383986045463e-14
40
12.5
210
1.2360282485880789e-32
220
-1.2246467991473532e-16
230
-1
0
CIRCLE
5
117
100
AcDbEntity
8
0
100
AcDbCircle
10
-203.58415128460894
20
-124.18594849232153
30
0
40
2.5
210
0
220
-0
230
1
0
CIRCLE
5
118
100
AcDbEntity
8
0
100
AcDbCircle
10
-97.584353736897043
20
-124.18594849232156
30
0
40
2.5
210
0
220
-0
230
1
0
ENDSEC
0
SECTION
2
OBJECTS
0
DICTIONARY
5
C
100
AcDbDictionary
3
ACAD_GROUP
350
D
3
ACAD_MLINESTYLE
350
17
0
DICTIONARY
5
D
100
AcDbDictionary
0
DICTIONARY
5
1A
330
C
100
AcDbDictionary
0
DICTIONARY
5
17
100
AcDbDictionary
0
ENDSEC
0
EOF
