999
"DXF R12 Output" (www.mydxf.blogspot.com)
 0 
SECTION
 2 
HEADER
 9 
$ACADVER
 1 
AC1009
 9 
$EXTMIN
 10 
 0 
 20 
 0 
 9 
$EXTMAX
 10 
 8.5 
 20 
 11 
 0 
ENDSEC
 0 
SECTION
 2 
ENTITIES
0
LINE
8
Layer 1
10
0.793749
20
297.794000
11
-0.793749
21
296.206000
0
LINE
8
Layer 1
10
0.000000
20
298.323000
11
0.000000
21
295.677000
0
LINE
8
Layer 1
10
2.116660
20
295.942000
11
1.058330
21
294.883670
0
LINE
8
Layer 1
10
1.587500
20
296.471000
11
0.529170
21
295.412670
0
LINE
8
Layer 1
10
1.058330
20
297.000000
11
0.000000
21
295.941670
0
LINE
8
0
10
149.422000
20
252.937000
11
159.911000
21
252.937000
0
LINE
8
0
10
159.911000
20
252.937000
11
159.911000
21
191.486000
0
LINE
8
0
10
159.911000
20
191.486000
11
149.422000
21
191.486000
0
LINE
8
0
10
149.422000
20
191.486000
11
149.422000
21
252.937000
0
LINE
8
0
10
152.828000
20
130.588000
11
152.718074
21
132.243745
0
LINE
8
0
10
152.718074
20
132.243745
11
152.395307
21
133.849471
0
LINE
8
0
10
152.395307
20
133.849471
11
151.870215
21
135.386961
0
LINE
8
0
10
151.870215
20
135.386961
11
151.153318
21
136.838000
0
LINE
8
0
10
151.153318
20
136.838000
11
150.255130
21
138.184371
0
LINE
8
0
10
150.255130
20
138.184371
11
149.186170
21
139.407859
0
LINE
8
0
10
149.186170
20
139.407859
11
147.956954
21
140.490246
0
LINE
8
0
10
147.956954
20
140.490246
11
146.578000
21
141.413318
0
LINE
8
0
10
146.578000
20
141.413318
11
145.089120
21
142.145991
0
LINE
8
0
10
145.089120
20
142.145991
11
143.537137
21
142.669329
0
LINE
8
0
10
143.537137
20
142.669329
11
141.943086
21
142.983332
0
LINE
8
0
10
141.943086
20
142.983332
11
140.328000
21
143.088000
0
LINE
8
0
10
140.328000
20
143.088000
11
138.712914
21
142.983332
0
LINE
8
0
10
138.712914
20
142.983332
11
137.118863
21
142.669329
0
LINE
8
0
10
137.118863
20
142.669329
11
135.566880
21
142.145991
0
LINE
8
0
10
135.566880
20
142.145991
11
134.078000
21
141.413318
0
LINE
8
0
10
134.078000
20
141.413318
11
132.699046
21
140.490246
0
LINE
8
0
10
132.699046
20
140.490246
11
131.469830
21
139.407859
0
LINE
8
0
10
131.469830
20
139.407859
11
130.400870
21
138.184371
0
LINE
8
0
10
130.400870
20
138.184371
11
129.502682
21
136.838000
0
LINE
8
0
10
129.502682
20
136.838000
11
128.785785
21
135.386961
0
LINE
8
0
10
128.785785
20
135.386961
11
128.260693
21
133.849471
0
LINE
8
0
10
128.260693
20
133.849471
11
127.937926
21
132.243745
0
LINE
8
0
10
127.937926
20
132.243745
11
127.828000
21
130.588000
0
LINE
8
0
10
127.828000
20
130.588000
11
127.937926
21
128.932255
0
LINE
8
0
10
127.937926
20
128.932255
11
128.260693
21
127.326529
0
LINE
8
0
10
128.260693
20
127.326529
11
128.785785
21
125.789039
0
LINE
8
0
10
128.785785
20
125.789039
11
129.502682
21
124.338000
0
LINE
8
0
10
129.502682
20
124.338000
11
130.400870
21
122.991629
0
LINE
8
0
10
130.400870
20
122.991629
11
131.469830
21
121.768141
0
LINE
8
0
10
131.469830
20
121.768141
11
132.699046
21
120.685754
0
LINE
8
0
10
132.699046
20
120.685754
11
134.078000
21
119.762682
0
LINE
8
0
10
134.078000
20
119.762682
11
135.566880
21
119.030009
0
LINE
8
0
10
135.566880
20
119.030009
11
137.118863
21
118.506671
0
LINE
8
0
10
137.118863
20
118.506671
11
138.712914
21
118.192668
0
LINE
8
0
10
138.712914
20
118.192668
11
140.328000
21
118.088000
0
LINE
8
0
10
140.328000
20
118.088000
11
141.943086
21
118.192668
0
LINE
8
0
10
141.943086
20
118.192668
11
143.537137
21
118.506671
0
LINE
8
0
10
143.537137
20
118.506671
11
145.089120
21
119.030009
0
LINE
8
0
10
145.089120
20
119.030009
11
146.578000
21
119.762682
0
LINE
8
0
10
146.578000
20
119.762682
11
147.956954
21
120.685754
0
LINE
8
0
10
147.956954
20
120.685754
11
149.186170
21
121.768141
0
LINE
8
0
10
149.186170
20
121.768141
11
150.255130
21
122.991629
0
LINE
8
0
10
150.255130
20
122.991629
11
151.153318
21
124.338000
0
LINE
8
0
10
151.153318
20
124.338000
11
151.870215
21
125.789039
0
LINE
8
0
10
151.870215
20
125.789039
11
152.395307
21
127.326529
0
LINE
8
0
10
152.395307
20
127.326529
11
152.718074
21
128.932255
0
LINE
8
0
10
152.718074
20
128.932255
11
152.828000
21
130.588000
0
LINE
8
0
10
152.828000
20
130.588000
11
152.828000
21
130.588000
0
LINE
8
0
10
159.660000
20
259.015000
11
159.462101
21
259.986507
0
LINE
8
0
10
159.462101
20
259.986507
11
158.926003
21
260.779534
0
LINE
8
0
10
158.926003
20
260.779534
11
158.131906
21
261.314044
0
LINE
8
0
10
158.131906
20
261.314044
11
157.160005
21
261.510000
0
LINE
8
0
10
157.160005
20
261.510000
11
156.188104
21
261.314044
0
LINE
8
0
10
156.188104
20
261.314044
11
155.394007
21
260.779534
0
LINE
8
0
10
155.394007
20
260.779534
11
154.857909
21
259.986507
0
LINE
8
0
10
154.857909
20
259.986507
11
154.660010
21
259.015000
0
LINE
8
0
10
154.660010
20
259.015000
11
154.857909
21
258.043493
0
LINE
8
0
10
154.857909
20
258.043493
11
155.394007
21
257.250466
0
LINE
8
0
10
155.394007
20
257.250466
11
156.188104
21
256.715956
0
LINE
8
0
10
156.188104
20
256.715956
11
157.160005
21
256.520000
0
LINE
8
0
10
157.160005
20
256.520000
11
158.131906
21
256.715956
0
LINE
8
0
10
158.131906
20
256.715956
11
158.926003
21
257.250466
0
LINE
8
0
10
158.926003
20
257.250466
11
159.462101
21
258.043493
0
LINE
8
0
10
159.462101
20
258.043493
11
159.660000
21
259.015000
0
LINE
8
0
10
159.660000
20
259.015000
11
159.660000
21
259.015000
0
LINE
8
0
10
121.370000
20
107.306000
11
121.116044
21
109.825186
0
LINE
8
0
10
121.116044
20
109.825186
11
120.387688
21
112.171564
0
LINE
8
0
10
120.387688
20
112.171564
11
119.235196
21
114.294869
0
LINE
8
0
10
119.235196
20
114.294869
11
117.708835
21
116.144835
0
LINE
8
0
10
117.708835
20
116.144835
11
115.858869
21
117.671196
0
LINE
8
0
10
115.858869
20
117.671196
11
113.735564
21
118.823688
0
LINE
8
0
10
113.735564
20
118.823688
11
111.389186
21
119.552044
0
LINE
8
0
10
111.389186
20
119.552044
11
108.870000
21
119.806000
0
LINE
8
0
10
108.870000
20
119.806000
11
106.350814
21
119.552044
0
LINE
8
0
10
106.350814
20
119.552044
11
104.004436
21
118.823688
0
LINE
8
0
10
104.004436
20
118.823688
11
101.881131
21
117.671196
0
LINE
8
0
10
101.881131
20
117.671196
11
100.031165
21
116.144835
0
LINE
8
0
10
100.031165
20
116.144835
11
98.504804
21
114.294869
0
LINE
8
0
10
98.504804
20
114.294869
11
97.352312
21
112.171564
0
LINE
8
0
10
97.352312
20
112.171564
11
96.623956
21
109.825186
0
LINE
8
0
10
96.623956
20
109.825186
11
96.370000
21
107.306000
0
LINE
8
0
10
96.370000
20
107.306000
11
96.623956
21
104.786814
0
LINE
8
0
10
96.623956
20
104.786814
11
97.352312
21
102.440436
0
LINE
8
0
10
97.352312
20
102.440436
11
98.504804
21
100.317131
0
LINE
8
0
10
98.504804
20
100.317131
11
100.031165
21
98.467165
0
LINE
8
0
10
100.031165
20
98.467165
11
101.881131
21
96.940804
0
LINE
8
0
10
101.881131
20
96.940804
11
104.004436
21
95.788312
0
LINE
8
0
10
104.004436
20
95.788312
11
106.350814
21
95.059956
0
LINE
8
0
10
106.350814
20
95.059956
11
108.870000
21
94.806000
0
LINE
8
0
10
108.870000
20
94.806000
11
111.389186
21
95.059956
0
LINE
8
0
10
111.389186
20
95.059956
11
113.735564
21
95.788312
0
LINE
8
0
10
113.735564
20
95.788312
11
115.858869
21
96.940804
0
LINE
8
0
10
115.858869
20
96.940804
11
117.708835
21
98.467165
0
LINE
8
0
10
117.708835
20
98.467165
11
119.235196
21
100.317131
0
LINE
8
0
10
119.235196
20
100.317131
11
120.387688
21
102.440436
0
LINE
8
0
10
120.387688
20
102.440436
11
121.116044
21
104.786814
0
LINE
8
0
10
121.116044
20
104.786814
11
121.370000
21
107.306000
0
LINE
8
0
10
121.370000
20
107.306000
11
121.370000
21
107.306000
0
LINE
8
0
10
121.375000
20
78.095300
11
121.265074
21
79.751045
0
LINE
8
0
10
121.265074
20
79.751045
11
120.942307
21
81.356771
0
LINE
8
0
10
120.942307
20
81.356771
11
120.417215
21
82.894261
0
LINE
8
0
10
120.417215
20
82.894261
11
119.700318
21
84.345300
0
LINE
8
0
10
119.700318
20
84.345300
11
118.802130
21
85.691671
0
LINE
8
0
10
118.802130
20
85.691671
11
117.733170
21
86.915159
0
LINE
8
0
10
117.733170
20
86.915159
11
116.503954
21
87.997546
0
LINE
8
0
10
116.503954
20
87.997546
11
115.125000
21
88.920618
0
LINE
8
0
10
115.125000
20
88.920618
11
113.636120
21
89.653291
0
LINE
8
0
10
113.636120
20
89.653291
11
112.084137
21
90.176629
0
LINE
8
0
10
112.084137
20
90.176629
11
110.490086
21
90.490632
0
LINE
8
0
10
110.490086
20
90.490632
11
108.875000
21
90.595300
0
LINE
8
0
10
108.875000
20
90.595300
11
107.259914
21
90.490632
0
LINE
8
0
10
107.259914
20
90.490632
11
105.665863
21
90.176629
0
LINE
8
0
10
105.665863
20
90.176629
11
104.113880
21
89.653291
0
LINE
8
0
10
104.113880
20
89.653291
11
102.625000
21
88.920618
0
LINE
8
0
10
102.625000
20
88.920618
11
101.246046
21
87.997546
0
LINE
8
0
10
101.246046
20
87.997546
11
100.016830
21
86.915159
0
LINE
8
0
10
100.016830
20
86.915159
11
98.947870
21
85.691671
0
LINE
8
0
10
98.947870
20
85.691671
11
98.049682
21
84.345300
0
LINE
8
0
10
98.049682
20
84.345300
11
97.332785
21
82.894261
0
LINE
8
0
10
97.332785
20
82.894261
11
96.807693
21
81.356771
0
LINE
8
0
10
96.807693
20
81.356771
11
96.484926
21
79.751045
0
LINE
8
0
10
96.484926
20
79.751045
11
96.375000
21
78.095300
0
LINE
8
0
10
96.375000
20
78.095300
11
96.628956
21
75.576114
0
LINE
8
0
10
96.628956
20
75.576114
11
97.357312
21
73.229736
0
LINE
8
0
10
97.357312
20
73.229736
11
98.509804
21
71.106431
0
LINE
8
0
10
98.509804
20
71.106431
11
100.036165
21
69.256465
0
LINE
8
0
10
100.036165
20
69.256465
11
101.886131
21
67.730104
0
LINE
8
0
10
101.886131
20
67.730104
11
104.009436
21
66.577612
0
LINE
8
0
10
104.009436
20
66.577612
11
106.355814
21
65.849256
0
LINE
8
0
10
106.355814
20
65.849256
11
108.875000
21
65.595300
0
LINE
8
0
10
108.875000
20
65.595300
11
111.394186
21
65.849256
0
LINE
8
0
10
111.394186
20
65.849256
11
113.740564
21
66.577612
0
LINE
8
0
10
113.740564
20
66.577612
11
115.863869
21
67.730104
0
LINE
8
0
10
115.863869
20
67.730104
11
117.713835
21
69.256465
0
LINE
8
0
10
117.713835
20
69.256465
11
119.240196
21
71.106431
0
LINE
8
0
10
119.240196
20
71.106431
11
120.392688
21
73.229736
0
LINE
8
0
10
120.392688
20
73.229736
11
121.121044
21
75.576114
0
LINE
8
0
10
121.121044
20
75.576114
11
121.375000
21
78.095300
0
LINE
8
0
10
121.375000
20
78.095300
11
121.375000
21
78.095300
0
LINE
8
0
10
129.889000
20
192.093000
11
129.779074
21
193.748745
0
LINE
8
0
10
129.779074
20
193.748745
11
129.456307
21
195.354471
0
LINE
8
0
10
129.456307
20
195.354471
11
128.931215
21
196.891961
0
LINE
8
0
10
128.931215
20
196.891961
11
128.214318
21
198.343000
0
LINE
8
0
10
128.214318
20
198.343000
11
127.316130
21
199.689371
0
LINE
8
0
10
127.316130
20
199.689371
11
126.247170
21
200.912859
0
LINE
8
0
10
126.247170
20
200.912859
11
125.017954
21
201.995246
0
LINE
8
0
10
125.017954
20
201.995246
11
123.639000
21
202.918318
0
LINE
8
0
10
123.639000
20
202.918318
11
122.150120
21
203.650991
0
LINE
8
0
10
122.150120
20
203.650991
11
120.598137
21
204.174329
0
LINE
8
0
10
120.598137
20
204.174329
11
119.004086
21
204.488332
0
LINE
8
0
10
119.004086
20
204.488332
11
117.389000
21
204.593000
0
LINE
8
0
10
117.389000
20
204.593000
11
115.773914
21
204.488332
0
LINE
8
0
10
115.773914
20
204.488332
11
114.179863
21
204.174329
0
LINE
8
0
10
114.179863
20
204.174329
11
112.627880
21
203.650991
0
LINE
8
0
10
112.627880
20
203.650991
11
111.139000
21
202.918318
0
LINE
8
0
10
111.139000
20
202.918318
11
109.760046
21
201.995246
0
LINE
8
0
10
109.760046
20
201.995246
11
108.530830
21
200.912859
0
LINE
8
0
10
108.530830
20
200.912859
11
107.461870
21
199.689371
0
LINE
8
0
10
107.461870
20
199.689371
11
106.563682
21
198.343000
0
LINE
8
0
10
106.563682
20
198.343000
11
105.846785
21
196.891961
0
LINE
8
0
10
105.846785
20
196.891961
11
105.321693
21
195.354471
0
LINE
8
0
10
105.321693
20
195.354471
11
104.998926
21
193.748745
0
LINE
8
0
10
104.998926
20
193.748745
11
104.889000
21
192.093000
0
LINE
8
0
10
104.889000
20
192.093000
11
104.998926
21
190.437255
0
LINE
8
0
10
104.998926
20
190.437255
11
105.321693
21
188.831529
0
LINE
8
0
10
105.321693
20
188.831529
11
105.846785
21
187.294039
0
LINE
8
0
10
105.846785
20
187.294039
11
106.563682
21
185.843000
0
LINE
8
0
10
106.563682
20
185.843000
11
107.461870
21
184.496629
0
LINE
8
0
10
107.461870
20
184.496629
11
108.530830
21
183.273141
0
LINE
8
0
10
108.530830
20
183.273141
11
109.760046
21
182.190754
0
LINE
8
0
10
109.760046
20
182.190754
11
111.139000
21
181.267682
0
LINE
8
0
10
111.139000
20
181.267682
11
112.627880
21
180.535009
0
LINE
8
0
10
112.627880
20
180.535009
11
114.179863
21
180.011671
0
LINE
8
0
10
114.179863
20
180.011671
11
115.773914
21
179.697668
0
LINE
8
0
10
115.773914
20
179.697668
11
117.389000
21
179.593000
0
LINE
8
0
10
117.389000
20
179.593000
11
119.004086
21
179.697668
0
LINE
8
0
10
119.004086
20
179.697668
11
120.598137
21
180.011671
0
LINE
8
0
10
120.598137
20
180.011671
11
122.150120
21
180.535009
0
LINE
8
0
10
122.150120
20
180.535009
11
123.639000
21
181.267682
0
LINE
8
0
10
123.639000
20
181.267682
11
125.017954
21
182.190754
0
LINE
8
0
10
125.017954
20
182.190754
11
126.247170
21
183.273141
0
LINE
8
0
10
126.247170
20
183.273141
11
127.316130
21
184.496629
0
LINE
8
0
10
127.316130
20
184.496629
11
128.214318
21
185.843000
0
LINE
8
0
10
128.214318
20
185.843000
11
128.931215
21
187.294039
0
LINE
8
0
10
128.931215
20
187.294039
11
129.456307
21
188.831529
0
LINE
8
0
10
129.456307
20
188.831529
11
129.779074
21
190.437255
0
LINE
8
0
10
129.779074
20
190.437255
11
129.889000
21
192.093000
0
LINE
8
0
10
129.889000
20
192.093000
11
129.889000
21
192.093000
0
LINE
8
0
10
53.660200
20
62.415200
11
53.462301
21
63.386707
0
LINE
8
0
10
53.462301
20
63.386707
11
52.926203
21
64.179734
0
LINE
8
0
10
52.926203
20
64.179734
11
52.132106
21
64.714244
0
LINE
8
0
10
52.132106
20
64.714244
11
51.160205
21
64.910200
0
LINE
8
0
10
51.160205
20
64.910200
11
50.188304
21
64.714244
0
LINE
8
0
10
50.188304
20
64.714244
11
49.394207
21
64.179734
0
LINE
8
0
10
49.394207
20
64.179734
11
48.858109
21
63.386707
0
LINE
8
0
10
48.858109
20
63.386707
11
48.660210
21
62.415200
0
LINE
8
0
10
48.660210
20
62.415200
11
48.858109
21
61.443693
0
LINE
8
0
10
48.858109
20
61.443693
11
49.394207
21
60.650666
0
LINE
8
0
10
49.394207
20
60.650666
11
50.188304
21
60.116156
0
LINE
8
0
10
50.188304
20
60.116156
11
51.160205
21
59.920200
0
LINE
8
0
10
51.160205
20
59.920200
11
52.132106
21
60.116156
0
LINE
8
0
10
52.132106
20
60.116156
11
52.926203
21
60.650666
0
LINE
8
0
10
52.926203
20
60.650666
11
53.462301
21
61.443693
0
LINE
8
0
10
53.462301
20
61.443693
11
53.660200
21
62.415200
0
LINE
8
0
10
53.660200
20
62.415200
11
53.660200
21
62.415200
0
LINE
8
0
10
79.790600
20
174.591000
11
79.710575
21
176.175785
0
LINE
8
0
10
79.710575
20
176.175785
11
79.475695
21
177.714791
0
LINE
8
0
10
79.475695
20
177.714791
11
79.093751
21
179.200226
0
LINE
8
0
10
79.093751
20
179.200226
11
78.572533
21
180.624299
0
LINE
8
0
10
78.572533
20
180.624299
11
77.143443
21
183.257197
0
LINE
8
0
10
77.143443
20
183.257197
11
75.250755
21
185.551155
0
LINE
8
0
10
75.250755
20
185.551155
11
72.956797
21
187.443843
0
LINE
8
0
10
72.956797
20
187.443843
11
70.323899
21
188.872933
0
LINE
8
0
10
70.323899
20
188.872933
11
68.899826
21
189.394150
0
LINE
8
0
10
68.899826
20
189.394150
11
67.414391
21
189.776095
0
LINE
8
0
10
67.414391
20
189.776095
11
65.875385
21
190.010975
0
LINE
8
0
10
65.875385
20
190.010975
11
64.290600
21
190.091000
0
LINE
8
0
10
64.290600
20
190.091000
11
62.705815
21
190.010975
0
LINE
8
0
10
62.705815
20
190.010975
11
61.166809
21
189.776095
0
LINE
8
0
10
61.166809
20
189.776095
11
59.681374
21
189.394150
0
LINE
8
0
10
59.681374
20
189.394150
11
58.257301
21
188.872933
0
LINE
8
0
10
58.257301
20
188.872933
11
55.624403
21
187.443843
0
LINE
8
0
10
55.624403
20
187.443843
11
53.330445
21
185.551155
0
LINE
8
0
10
53.330445
20
185.551155
11
51.437757
21
183.257197
0
LINE
8
0
10
51.437757
20
183.257197
11
50.008667
21
180.624299
0
LINE
8
0
10
50.008667
20
180.624299
11
49.487449
21
179.200226
0
LINE
8
0
10
49.487449
20
179.200226
11
49.105505
21
177.714791
0
LINE
8
0
10
49.105505
20
177.714791
11
48.870625
21
176.175785
0
LINE
8
0
10
48.870625
20
176.175785
11
48.790600
21
174.591000
0
LINE
8
0
10
48.790600
20
174.591000
11
48.926908
21
172.537876
0
LINE
8
0
10
48.926908
20
172.537876
11
49.327140
21
170.546776
0
LINE
8
0
10
49.327140
20
170.546776
11
49.978253
21
168.640288
0
LINE
8
0
10
49.978253
20
168.640288
11
50.867206
21
166.841000
0
LINE
8
0
10
50.867206
20
166.841000
11
51.980959
21
165.171500
0
LINE
8
0
10
51.980959
20
165.171500
11
53.306470
21
163.654375
0
LINE
8
0
10
53.306470
20
163.654375
11
54.830697
21
162.312215
0
LINE
8
0
10
54.830697
20
162.312215
11
56.540600
21
161.167606
0
LINE
8
0
10
56.540600
20
161.167606
11
58.386812
21
160.259091
0
LINE
8
0
10
58.386812
20
160.259091
11
60.311270
21
159.610152
0
LINE
8
0
10
60.311270
20
159.610152
11
62.287894
21
159.220788
0
LINE
8
0
10
62.287894
20
159.220788
11
64.290600
21
159.091000
0
LINE
8
0
10
64.290600
20
159.091000
11
66.293306
21
159.220788
0
LINE
8
0
10
66.293306
20
159.220788
11
68.269930
21
159.610152
0
LINE
8
0
10
68.269930
20
159.610152
11
70.194388
21
160.259091
0
LINE
8
0
10
70.194388
20
160.259091
11
72.040600
21
161.167606
0
LINE
8
0
10
72.040600
20
161.167606
11
73.750503
21
162.312215
0
LINE
8
0
10
73.750503
20
162.312215
11
75.274730
21
163.654375
0
LINE
8
0
10
75.274730
20
163.654375
11
76.600241
21
165.171500
0
LINE
8
0
10
76.600241
20
165.171500
11
77.713994
21
166.841000
0
LINE
8
0
10
77.713994
20
166.841000
11
78.602947
21
168.640288
0
LINE
8
0
10
78.602947
20
168.640288
11
79.254060
21
170.546776
0
LINE
8
0
10
79.254060
20
170.546776
11
79.654292
21
172.537876
0
LINE
8
0
10
79.654292
20
172.537876
11
79.790600
21
174.591000
0
LINE
8
0
10
79.790600
20
174.591000
11
79.790600
21
174.591000
0
LINE
8
0
10
164.110000
20
261.015000
11
164.013040
21
261.995007
0
LINE
8
0
10
164.013040
20
261.995007
11
163.729400
21
262.928419
0
LINE
8
0
10
163.729400
20
262.928419
11
163.269944
21
263.789005
0
LINE
8
0
10
163.269944
20
263.789005
11
162.645537
21
264.550537
0
LINE
8
0
10
162.645537
20
264.550537
11
161.884005
21
265.174944
0
LINE
8
0
10
161.884005
20
265.174944
11
161.023419
21
265.634400
0
LINE
8
0
10
161.023419
20
265.634400
11
160.090007
21
265.918040
0
LINE
8
0
10
160.090007
20
265.918040
11
159.110000
21
266.015000
0
LINE
8
0
10
159.110000
20
266.015000
11
49.110000
21
266.015000
0
LINE
8
0
10
49.110000
20
266.015000
11
48.129995
21
265.918039
0
LINE
8
0
10
48.129995
20
265.918039
11
47.196587
21
265.634398
0
LINE
8
0
10
47.196587
20
265.634398
11
46.336003
21
265.174943
0
LINE
8
0
10
46.336003
20
265.174943
11
45.574473
21
264.550537
0
LINE
8
0
10
45.574473
20
264.550537
11
44.950067
21
263.789007
0
LINE
8
0
10
44.950067
20
263.789007
11
44.490612
21
262.928423
0
LINE
8
0
10
44.490612
20
262.928423
11
44.206971
21
261.995015
0
LINE
8
0
10
44.206971
20
261.995015
11
44.110010
21
261.015010
0
LINE
8
0
10
44.110010
20
261.015010
11
44.110000
21
61.015200
0
LINE
8
0
10
44.110000
20
61.015200
11
44.211582
21
60.007528
0
LINE
8
0
10
44.211582
20
60.007528
11
44.502924
21
59.068978
0
LINE
8
0
10
44.502924
20
59.068978
11
44.963920
21
58.219658
0
LINE
8
0
10
44.963920
20
58.219658
11
45.574463
21
57.479673
0
LINE
8
0
10
45.574463
20
57.479673
11
46.314448
21
56.869130
0
LINE
8
0
10
46.314448
20
56.869130
11
47.163768
21
56.408134
0
LINE
8
0
10
47.163768
20
56.408134
11
48.102318
21
56.116792
0
LINE
8
0
10
48.102318
20
56.116792
11
49.109990
21
56.015210
0
LINE
8
0
10
49.109990
20
56.015210
11
159.110000
21
56.015300
0
LINE
8
0
10
159.110000
20
56.015300
11
160.090005
21
56.112261
0
LINE
8
0
10
160.090005
20
56.112261
11
161.023413
21
56.395902
0
LINE
8
0
10
161.023413
20
56.395902
11
161.883997
21
56.855357
0
LINE
8
0
10
161.883997
20
56.855357
11
162.645527
21
57.479763
0
LINE
8
0
10
162.645527
20
57.479763
11
163.269933
21
58.241293
0
LINE
8
0
10
163.269933
20
58.241293
11
163.729388
21
59.101877
0
LINE
8
0
10
163.729388
20
59.101877
11
164.013029
21
60.035285
0
LINE
8
0
10
164.013029
20
60.035285
11
164.109990
21
61.015290
0
LINE
8
0
10
164.109990
20
61.015290
11
164.110000
21
261.015000
0
LINE
8
0
10
110.265000
20
162.771000
11
110.155074
21
164.426745
0
LINE
8
0
10
110.155074
20
164.426745
11
109.832307
21
166.032471
0
LINE
8
0
10
109.832307
20
166.032471
11
109.307215
21
167.569961
0
LINE
8
0
10
109.307215
20
167.569961
11
108.590318
21
169.021000
0
LINE
8
0
10
108.590318
20
169.021000
11
107.692130
21
170.367371
0
LINE
8
0
10
107.692130
20
170.367371
11
106.623170
21
171.590859
0
LINE
8
0
10
106.623170
20
171.590859
11
105.393954
21
172.673246
0
LINE
8
0
10
105.393954
20
172.673246
11
104.015000
21
173.596318
0
LINE
8
0
10
104.015000
20
173.596318
11
102.526120
21
174.328991
0
LINE
8
0
10
102.526120
20
174.328991
11
100.974137
21
174.852329
0
LINE
8
0
10
100.974137
20
174.852329
11
99.380086
21
175.166332
0
LINE
8
0
10
99.380086
20
175.166332
11
97.765000
21
175.271000
0
LINE
8
0
10
97.765000
20
175.271000
11
96.149914
21
175.166332
0
LINE
8
0
10
96.149914
20
175.166332
11
94.555863
21
174.852329
0
LINE
8
0
10
94.555863
20
174.852329
11
93.003880
21
174.328991
0
LINE
8
0
10
93.003880
20
174.328991
11
91.515000
21
173.596318
0
LINE
8
0
10
91.515000
20
173.596318
11
90.136046
21
172.673246
0
LINE
8
0
10
90.136046
20
172.673246
11
88.906830
21
171.590859
0
LINE
8
0
10
88.906830
20
171.590859
11
87.837870
21
170.367371
0
LINE
8
0
10
87.837870
20
170.367371
11
86.939682
21
169.021000
0
LINE
8
0
10
86.939682
20
169.021000
11
86.222785
21
167.569961
0
LINE
8
0
10
86.222785
20
167.569961
11
85.697693
21
166.032471
0
LINE
8
0
10
85.697693
20
166.032471
11
85.374926
21
164.426745
0
LINE
8
0
10
85.374926
20
164.426745
11
85.265000
21
162.771000
0
LINE
8
0
10
85.265000
20
162.771000
11
85.374926
21
161.115255
0
LINE
8
0
10
85.374926
20
161.115255
11
85.697693
21
159.509529
0
LINE
8
0
10
85.697693
20
159.509529
11
86.222785
21
157.972039
0
LINE
8
0
10
86.222785
20
157.972039
11
86.939682
21
156.521000
0
LINE
8
0
10
86.939682
20
156.521000
11
87.837870
21
155.174629
0
LINE
8
0
10
87.837870
20
155.174629
11
88.906830
21
153.951141
0
LINE
8
0
10
88.906830
20
153.951141
11
90.136046
21
152.868754
0
LINE
8
0
10
90.136046
20
152.868754
11
91.515000
21
151.945682
0
LINE
8
0
10
91.515000
20
151.945682
11
93.003880
21
151.213009
0
LINE
8
0
10
93.003880
20
151.213009
11
94.555863
21
150.689671
0
LINE
8
0
10
94.555863
20
150.689671
11
96.149914
21
150.375668
0
LINE
8
0
10
96.149914
20
150.375668
11
97.765000
21
150.271000
0
LINE
8
0
10
97.765000
20
150.271000
11
99.380086
21
150.375668
0
LINE
8
0
10
99.380086
20
150.375668
11
100.974137
21
150.689671
0
LINE
8
0
10
100.974137
20
150.689671
11
102.526120
21
151.213009
0
LINE
8
0
10
102.526120
20
151.213009
11
104.015000
21
151.945682
0
LINE
8
0
10
104.015000
20
151.945682
11
105.393954
21
152.868754
0
LINE
8
0
10
105.393954
20
152.868754
11
106.623170
21
153.951141
0
LINE
8
0
10
106.623170
20
153.951141
11
107.692130
21
155.174629
0
LINE
8
0
10
107.692130
20
155.174629
11
108.590318
21
156.521000
0
LINE
8
0
10
108.590318
20
156.521000
11
109.307215
21
157.972039
0
LINE
8
0
10
109.307215
20
157.972039
11
109.832307
21
159.509529
0
LINE
8
0
10
109.832307
20
159.509529
11
110.155074
21
161.115255
0
LINE
8
0
10
110.155074
20
161.115255
11
110.265000
21
162.771000
0
LINE
8
0
10
110.265000
20
162.771000
11
110.265000
21
162.771000
0
LINE
8
0
10
141.364000
20
247.785000
11
141.254074
21
249.440745
0
LINE
8
0
10
141.254074
20
249.440745
11
140.931307
21
251.046471
0
LINE
8
0
10
140.931307
20
251.046471
11
140.406215
21
252.583961
0
LINE
8
0
10
140.406215
20
252.583961
11
139.689318
21
254.035000
0
LINE
8
0
10
139.689318
20
254.035000
11
138.791130
21
255.381371
0
LINE
8
0
10
138.791130
20
255.381371
11
137.722170
21
256.604859
0
LINE
8
0
10
137.722170
20
256.604859
11
136.492954
21
257.687246
0
LINE
8
0
10
136.492954
20
257.687246
11
135.114000
21
258.610318
0
LINE
8
0
10
135.114000
20
258.610318
11
133.625120
21
259.342991
0
LINE
8
0
10
133.625120
20
259.342991
11
132.073137
21
259.866329
0
LINE
8
0
10
132.073137
20
259.866329
11
130.479086
21
260.180332
0
LINE
8
0
10
130.479086
20
260.180332
11
128.864000
21
260.285000
0
LINE
8
0
10
128.864000
20
260.285000
11
127.248914
21
260.180332
0
LINE
8
0
10
127.248914
20
260.180332
11
125.654863
21
259.866329
0
LINE
8
0
10
125.654863
20
259.866329
11
124.102880
21
259.342991
0
LINE
8
0
10
124.102880
20
259.342991
11
122.614000
21
258.610318
0
LINE
8
0
10
122.614000
20
258.610318
11
121.235046
21
257.687246
0
LINE
8
0
10
121.235046
20
257.687246
11
120.005830
21
256.604859
0
LINE
8
0
10
120.005830
20
256.604859
11
118.936870
21
255.381371
0
LINE
8
0
10
118.936870
20
255.381371
11
118.038682
21
254.035000
0
LINE
8
0
10
118.038682
20
254.035000
11
117.321785
21
252.583961
0
LINE
8
0
10
117.321785
20
252.583961
11
116.796693
21
251.046471
0
LINE
8
0
10
116.796693
20
251.046471
11
116.473926
21
249.440745
0
LINE
8
0
10
116.473926
20
249.440745
11
116.364000
21
247.785000
0
LINE
8
0
10
116.364000
20
247.785000
11
116.473926
21
246.129255
0
LINE
8
0
10
116.473926
20
246.129255
11
116.796693
21
244.523529
0
LINE
8
0
10
116.796693
20
244.523529
11
117.321785
21
242.986039
0
LINE
8
0
10
117.321785
20
242.986039
11
118.038682
21
241.535000
0
LINE
8
0
10
118.038682
20
241.535000
11
118.936870
21
240.188629
0
LINE
8
0
10
118.936870
20
240.188629
11
120.005830
21
238.965141
0
LINE
8
0
10
120.005830
20
238.965141
11
121.235046
21
237.882754
0
LINE
8
0
10
121.235046
20
237.882754
11
122.614000
21
236.959682
0
LINE
8
0
10
122.614000
20
236.959682
11
124.102880
21
236.227009
0
LINE
8
0
10
124.102880
20
236.227009
11
125.654863
21
235.703671
0
LINE
8
0
10
125.654863
20
235.703671
11
127.248914
21
235.389668
0
LINE
8
0
10
127.248914
20
235.389668
11
128.864000
21
235.285000
0
LINE
8
0
10
128.864000
20
235.285000
11
130.479086
21
235.389668
0
LINE
8
0
10
130.479086
20
235.389668
11
132.073137
21
235.703671
0
LINE
8
0
10
132.073137
20
235.703671
11
133.625120
21
236.227009
0
LINE
8
0
10
133.625120
20
236.227009
11
135.114000
21
236.959682
0
LINE
8
0
10
135.114000
20
236.959682
11
136.492954
21
237.882754
0
LINE
8
0
10
136.492954
20
237.882754
11
137.722170
21
238.965141
0
LINE
8
0
10
137.722170
20
238.965141
11
138.791130
21
240.188629
0
LINE
8
0
10
138.791130
20
240.188629
11
139.689318
21
241.535000
0
LINE
8
0
10
139.689318
20
241.535000
11
140.406215
21
242.986039
0
LINE
8
0
10
140.406215
20
242.986039
11
140.931307
21
244.523529
0
LINE
8
0
10
140.931307
20
244.523529
11
141.254074
21
246.129255
0
LINE
8
0
10
141.254074
20
246.129255
11
141.364000
21
247.785000
0
LINE
8
0
10
141.364000
20
247.785000
11
141.364000
21
247.785000
0
LINE
8
0
10
141.240000
20
218.695000
11
141.130074
21
220.350745
0
LINE
8
0
10
141.130074
20
220.350745
11
140.807307
21
221.956471
0
LINE
8
0
10
140.807307
20
221.956471
11
140.282215
21
223.493961
0
LINE
8
0
10
140.282215
20
223.493961
11
139.565318
21
224.945000
0
LINE
8
0
10
139.565318
20
224.945000
11
138.667130
21
226.291371
0
LINE
8
0
10
138.667130
20
226.291371
11
137.598170
21
227.514859
0
LINE
8
0
10
137.598170
20
227.514859
11
136.368954
21
228.597246
0
LINE
8
0
10
136.368954
20
228.597246
11
134.990000
21
229.520318
0
LINE
8
0
10
134.990000
20
229.520318
11
133.501120
21
230.252991
0
LINE
8
0
10
133.501120
20
230.252991
11
131.949137
21
230.776329
0
LINE
8
0
10
131.949137
20
230.776329
11
130.355086
21
231.090332
0
LINE
8
0
10
130.355086
20
231.090332
11
128.740000
21
231.195000
0
LINE
8
0
10
128.740000
20
231.195000
11
127.124914
21
231.090332
0
LINE
8
0
10
127.124914
20
231.090332
11
125.530863
21
230.776329
0
LINE
8
0
10
125.530863
20
230.776329
11
123.978880
21
230.252991
0
LINE
8
0
10
123.978880
20
230.252991
11
122.490000
21
229.520318
0
LINE
8
0
10
122.490000
20
229.520318
11
121.111046
21
228.597246
0
LINE
8
0
10
121.111046
20
228.597246
11
119.881830
21
227.514859
0
LINE
8
0
10
119.881830
20
227.514859
11
118.812870
21
226.291371
0
LINE
8
0
10
118.812870
20
226.291371
11
117.914682
21
224.945000
0
LINE
8
0
10
117.914682
20
224.945000
11
117.197785
21
223.493961
0
LINE
8
0
10
117.197785
20
223.493961
11
116.672693
21
221.956471
0
LINE
8
0
10
116.672693
20
221.956471
11
116.349926
21
220.350745
0
LINE
8
0
10
116.349926
20
220.350745
11
116.240000
21
218.695000
0
LINE
8
0
10
116.240000
20
218.695000
11
116.349926
21
217.039255
0
LINE
8
0
10
116.349926
20
217.039255
11
116.672693
21
215.433529
0
LINE
8
0
10
116.672693
20
215.433529
11
117.197785
21
213.896039
0
LINE
8
0
10
117.197785
20
213.896039
11
117.914682
21
212.445000
0
LINE
8
0
10
117.914682
20
212.445000
11
118.812870
21
211.098629
0
LINE
8
0
10
118.812870
20
211.098629
11
119.881830
21
209.875141
0
LINE
8
0
10
119.881830
20
209.875141
11
121.111046
21
208.792754
0
LINE
8
0
10
121.111046
20
208.792754
11
122.490000
21
207.869682
0
LINE
8
0
10
122.490000
20
207.869682
11
123.978880
21
207.137009
0
LINE
8
0
10
123.978880
20
207.137009
11
125.530863
21
206.613671
0
LINE
8
0
10
125.530863
20
206.613671
11
127.124914
21
206.299668
0
LINE
8
0
10
127.124914
20
206.299668
11
128.740000
21
206.195000
0
LINE
8
0
10
128.740000
20
206.195000
11
130.355086
21
206.299668
0
LINE
8
0
10
130.355086
20
206.299668
11
131.949137
21
206.613671
0
LINE
8
0
10
131.949137
20
206.613671
11
133.501120
21
207.137009
0
LINE
8
0
10
133.501120
20
207.137009
11
134.990000
21
207.869682
0
LINE
8
0
10
134.990000
20
207.869682
11
136.368954
21
208.792754
0
LINE
8
0
10
136.368954
20
208.792754
11
137.598170
21
209.875141
0
LINE
8
0
10
137.598170
20
209.875141
11
138.667130
21
211.098629
0
LINE
8
0
10
138.667130
20
211.098629
11
139.565318
21
212.445000
0
LINE
8
0
10
139.565318
20
212.445000
11
140.282215
21
213.896039
0
LINE
8
0
10
140.282215
20
213.896039
11
140.807307
21
215.433529
0
LINE
8
0
10
140.807307
20
215.433529
11
141.130074
21
217.039255
0
LINE
8
0
10
141.130074
20
217.039255
11
141.240000
21
218.695000
0
LINE
8
0
10
141.240000
20
218.695000
11
141.240000
21
218.695000
0
LINE
8
0
10
121.374000
20
136.153000
11
121.264074
21
137.808745
0
LINE
8
0
10
121.264074
20
137.808745
11
120.941307
21
139.414471
0
LINE
8
0
10
120.941307
20
139.414471
11
120.416215
21
140.951961
0
LINE
8
0
10
120.416215
20
140.951961
11
119.699318
21
142.403000
0
LINE
8
0
10
119.699318
20
142.403000
11
118.801130
21
143.749371
0
LINE
8
0
10
118.801130
20
143.749371
11
117.732170
21
144.972859
0
LINE
8
0
10
117.732170
20
144.972859
11
116.502954
21
146.055246
0
LINE
8
0
10
116.502954
20
146.055246
11
115.124000
21
146.978318
0
LINE
8
0
10
115.124000
20
146.978318
11
113.635120
21
147.710991
0
LINE
8
0
10
113.635120
20
147.710991
11
112.083137
21
148.234329
0
LINE
8
0
10
112.083137
20
148.234329
11
110.489086
21
148.548332
0
LINE
8
0
10
110.489086
20
148.548332
11
108.874000
21
148.653000
0
LINE
8
0
10
108.874000
20
148.653000
11
107.258914
21
148.548332
0
LINE
8
0
10
107.258914
20
148.548332
11
105.664863
21
148.234329
0
LINE
8
0
10
105.664863
20
148.234329
11
104.112880
21
147.710991
0
LINE
8
0
10
104.112880
20
147.710991
11
102.624000
21
146.978318
0
LINE
8
0
10
102.624000
20
146.978318
11
101.245046
21
146.055246
0
LINE
8
0
10
101.245046
20
146.055246
11
100.015830
21
144.972859
0
LINE
8
0
10
100.015830
20
144.972859
11
98.946870
21
143.749371
0
LINE
8
0
10
98.946870
20
143.749371
11
98.048682
21
142.403000
0
LINE
8
0
10
98.048682
20
142.403000
11
97.331785
21
140.951961
0
LINE
8
0
10
97.331785
20
140.951961
11
96.806693
21
139.414471
0
LINE
8
0
10
96.806693
20
139.414471
11
96.483926
21
137.808745
0
LINE
8
0
10
96.483926
20
137.808745
11
96.374000
21
136.153000
0
LINE
8
0
10
96.374000
20
136.153000
11
96.627956
21
133.633814
0
LINE
8
0
10
96.627956
20
133.633814
11
97.356312
21
131.287436
0
LINE
8
0
10
97.356312
20
131.287436
11
98.508804
21
129.164131
0
LINE
8
0
10
98.508804
20
129.164131
11
100.035165
21
127.314165
0
LINE
8
0
10
100.035165
20
127.314165
11
101.885131
21
125.787804
0
LINE
8
0
10
101.885131
20
125.787804
11
104.008436
21
124.635312
0
LINE
8
0
10
104.008436
20
124.635312
11
106.354814
21
123.906956
0
LINE
8
0
10
106.354814
20
123.906956
11
108.874000
21
123.653000
0
LINE
8
0
10
108.874000
20
123.653000
11
111.393186
21
123.906956
0
LINE
8
0
10
111.393186
20
123.906956
11
113.739564
21
124.635312
0
LINE
8
0
10
113.739564
20
124.635312
11
115.862869
21
125.787804
0
LINE
8
0
10
115.862869
20
125.787804
11
117.712835
21
127.314165
0
LINE
8
0
10
117.712835
20
127.314165
11
119.239196
21
129.164131
0
LINE
8
0
10
119.239196
20
129.164131
11
120.391688
21
131.287436
0
LINE
8
0
10
120.391688
20
131.287436
11
121.120044
21
133.633814
0
LINE
8
0
10
121.120044
20
133.633814
11
121.374000
21
136.153000
0
LINE
8
0
10
121.374000
20
136.153000
11
121.374000
21
136.153000
0
LINE
8
0
10
159.660000
20
62.415200
11
159.462101
21
63.386707
0
LINE
8
0
10
159.462101
20
63.386707
11
158.926003
21
64.179734
0
LINE
8
0
10
158.926003
20
64.179734
11
158.131906
21
64.714244
0
LINE
8
0
10
158.131906
20
64.714244
11
157.160005
21
64.910200
0
LINE
8
0
10
157.160005
20
64.910200
11
156.188104
21
64.714244
0
LINE
8
0
10
156.188104
20
64.714244
11
155.394007
21
64.179734
0
LINE
8
0
10
155.394007
20
64.179734
11
154.857909
21
63.386707
0
LINE
8
0
10
154.857909
20
63.386707
11
154.660010
21
62.415200
0
LINE
8
0
10
154.660010
20
62.415200
11
154.857909
21
61.443693
0
LINE
8
0
10
154.857909
20
61.443693
11
155.394007
21
60.650666
0
LINE
8
0
10
155.394007
20
60.650666
11
156.188104
21
60.116156
0
LINE
8
0
10
156.188104
20
60.116156
11
157.160005
21
59.920200
0
LINE
8
0
10
157.160005
20
59.920200
11
158.131906
21
60.116156
0
LINE
8
0
10
158.131906
20
60.116156
11
158.926003
21
60.650666
0
LINE
8
0
10
158.926003
20
60.650666
11
159.462101
21
61.443693
0
LINE
8
0
10
159.462101
20
61.443693
11
159.660000
21
62.415200
0
LINE
8
0
10
159.660000
20
62.415200
11
159.660000
21
62.415200
0
LINE
8
0
10
152.709000
20
72.655200
11
152.599074
21
74.310945
0
LINE
8
0
10
152.599074
20
74.310945
11
152.276307
21
75.916671
0
LINE
8
0
10
152.276307
20
75.916671
11
151.751215
21
77.454161
0
LINE
8
0
10
151.751215
20
77.454161
11
151.034318
21
78.905200
0
LINE
8
0
10
151.034318
20
78.905200
11
150.136130
21
80.251571
0
LINE
8
0
10
150.136130
20
80.251571
11
149.067170
21
81.475059
0
LINE
8
0
10
149.067170
20
81.475059
11
147.837954
21
82.557446
0
LINE
8
0
10
147.837954
20
82.557446
11
146.459000
21
83.480518
0
LINE
8
0
10
146.459000
20
83.480518
11
144.970120
21
84.213191
0
LINE
8
0
10
144.970120
20
84.213191
11
143.418137
21
84.736529
0
LINE
8
0
10
143.418137
20
84.736529
11
141.824086
21
85.050532
0
LINE
8
0
10
141.824086
20
85.050532
11
140.209000
21
85.155200
0
LINE
8
0
10
140.209000
20
85.155200
11
138.593914
21
85.050532
0
LINE
8
0
10
138.593914
20
85.050532
11
136.999863
21
84.736529
0
LINE
8
0
10
136.999863
20
84.736529
11
135.447880
21
84.213191
0
LINE
8
0
10
135.447880
20
84.213191
11
133.959000
21
83.480518
0
LINE
8
0
10
133.959000
20
83.480518
11
132.580046
21
82.557446
0
LINE
8
0
10
132.580046
20
82.557446
11
131.350830
21
81.475059
0
LINE
8
0
10
131.350830
20
81.475059
11
130.281870
21
80.251571
0
LINE
8
0
10
130.281870
20
80.251571
11
129.383682
21
78.905200
0
LINE
8
0
10
129.383682
20
78.905200
11
128.666785
21
77.454161
0
LINE
8
0
10
128.666785
20
77.454161
11
128.141693
21
75.916671
0
LINE
8
0
10
128.141693
20
75.916671
11
127.818926
21
74.310945
0
LINE
8
0
10
127.818926
20
74.310945
11
127.709000
21
72.655200
0
LINE
8
0
10
127.709000
20
72.655200
11
127.818926
21
70.999455
0
LINE
8
0
10
127.818926
20
70.999455
11
128.141693
21
69.393729
0
LINE
8
0
10
128.141693
20
69.393729
11
128.666785
21
67.856239
0
LINE
8
0
10
128.666785
20
67.856239
11
129.383682
21
66.405200
0
LINE
8
0
10
129.383682
20
66.405200
11
130.281870
21
65.058829
0
LINE
8
0
10
130.281870
20
65.058829
11
131.350830
21
63.835341
0
LINE
8
0
10
131.350830
20
63.835341
11
132.580046
21
62.752954
0
LINE
8
0
10
132.580046
20
62.752954
11
133.959000
21
61.829882
0
LINE
8
0
10
133.959000
20
61.829882
11
135.447880
21
61.097209
0
LINE
8
0
10
135.447880
20
61.097209
11
136.999863
21
60.573871
0
LINE
8
0
10
136.999863
20
60.573871
11
138.593914
21
60.259868
0
LINE
8
0
10
138.593914
20
60.259868
11
140.209000
21
60.155200
0
LINE
8
0
10
140.209000
20
60.155200
11
141.824086
21
60.259868
0
LINE
8
0
10
141.824086
20
60.259868
11
143.418137
21
60.573871
0
LINE
8
0
10
143.418137
20
60.573871
11
144.970120
21
61.097209
0
LINE
8
0
10
144.970120
20
61.097209
11
146.459000
21
61.829882
0
LINE
8
0
10
146.459000
20
61.829882
11
147.837954
21
62.752954
0
LINE
8
0
10
147.837954
20
62.752954
11
149.067170
21
63.835341
0
LINE
8
0
10
149.067170
20
63.835341
11
150.136130
21
65.058829
0
LINE
8
0
10
150.136130
20
65.058829
11
151.034318
21
66.405200
0
LINE
8
0
10
151.034318
20
66.405200
11
151.751215
21
67.856239
0
LINE
8
0
10
151.751215
20
67.856239
11
152.276307
21
69.393729
0
LINE
8
0
10
152.276307
20
69.393729
11
152.599074
21
70.999455
0
LINE
8
0
10
152.599074
20
70.999455
11
152.709000
21
72.655200
0
LINE
8
0
10
152.709000
20
72.655200
11
152.709000
21
72.655200
0
LINE
8
0
10
53.660000
20
259.015000
11
53.462101
21
259.986507
0
LINE
8
0
10
53.462101
20
259.986507
11
52.926003
21
260.779534
0
LINE
8
0
10
52.926003
20
260.779534
11
52.131906
21
261.314044
0
LINE
8
0
10
52.131906
20
261.314044
11
51.160005
21
261.510000
0
LINE
8
0
10
51.160005
20
261.510000
11
50.188104
21
261.314044
0
LINE
8
0
10
50.188104
20
261.314044
11
49.394007
21
260.779534
0
LINE
8
0
10
49.394007
20
260.779534
11
48.857909
21
259.986507
0
LINE
8
0
10
48.857909
20
259.986507
11
48.660010
21
259.015000
0
LINE
8
0
10
48.660010
20
259.015000
11
48.857909
21
258.043493
0
LINE
8
0
10
48.857909
20
258.043493
11
49.394007
21
257.250466
0
LINE
8
0
10
49.394007
20
257.250466
11
50.188104
21
256.715956
0
LINE
8
0
10
50.188104
20
256.715956
11
51.160005
21
256.520000
0
LINE
8
0
10
51.160005
20
256.520000
11
52.131906
21
256.715956
0
LINE
8
0
10
52.131906
20
256.715956
11
52.926003
21
257.250466
0
LINE
8
0
10
52.926003
20
257.250466
11
53.462101
21
258.043493
0
LINE
8
0
10
53.462101
20
258.043493
11
53.660000
21
259.015000
0
LINE
8
0
10
53.660000
20
259.015000
11
53.660000
21
259.015000
0
LINE
8
0
10
152.950000
20
101.633000
11
152.840074
21
103.288745
0
LINE
8
0
10
152.840074
20
103.288745
11
152.517307
21
104.894471
0
LINE
8
0
10
152.517307
20
104.894471
11
151.992215
21
106.431961
0
LINE
8
0
10
151.992215
20
106.431961
11
151.275318
21
107.883000
0
LINE
8
0
10
151.275318
20
107.883000
11
150.377130
21
109.229371
0
LINE
8
0
10
150.377130
20
109.229371
11
149.308170
21
110.452859
0
LINE
8
0
10
149.308170
20
110.452859
11
148.078954
21
111.535246
0
LINE
8
0
10
148.078954
20
111.535246
11
146.700000
21
112.458318
0
LINE
8
0
10
146.700000
20
112.458318
11
145.211120
21
113.190991
0
LINE
8
0
10
145.211120
20
113.190991
11
143.659137
21
113.714329
0
LINE
8
0
10
143.659137
20
113.714329
11
142.065086
21
114.028332
0
LINE
8
0
10
142.065086
20
114.028332
11
140.450000
21
114.133000
0
LINE
8
0
10
140.450000
20
114.133000
11
138.834914
21
114.028332
0
LINE
8
0
10
138.834914
20
114.028332
11
137.240863
21
113.714329
0
LINE
8
0
10
137.240863
20
113.714329
11
135.688880
21
113.190991
0
LINE
8
0
10
135.688880
20
113.190991
11
134.200000
21
112.458318
0
LINE
8
0
10
134.200000
20
112.458318
11
132.821046
21
111.535246
0
LINE
8
0
10
132.821046
20
111.535246
11
131.591830
21
110.452859
0
LINE
8
0
10
131.591830
20
110.452859
11
130.522870
21
109.229371
0
LINE
8
0
10
130.522870
20
109.229371
11
129.624682
21
107.883000
0
LINE
8
0
10
129.624682
20
107.883000
11
128.907785
21
106.431961
0
LINE
8
0
10
128.907785
20
106.431961
11
128.382693
21
104.894471
0
LINE
8
0
10
128.382693
20
104.894471
11
128.059926
21
103.288745
0
LINE
8
0
10
128.059926
20
103.288745
11
127.950000
21
101.633000
0
LINE
8
0
10
127.950000
20
101.633000
11
128.059926
21
99.977255
0
LINE
8
0
10
128.059926
20
99.977255
11
128.382693
21
98.371529
0
LINE
8
0
10
128.382693
20
98.371529
11
128.907785
21
96.834039
0
LINE
8
0
10
128.907785
20
96.834039
11
129.624682
21
95.383000
0
LINE
8
0
10
129.624682
20
95.383000
11
130.522870
21
94.036629
0
LINE
8
0
10
130.522870
20
94.036629
11
131.591830
21
92.813141
0
LINE
8
0
10
131.591830
20
92.813141
11
132.821046
21
91.730754
0
LINE
8
0
10
132.821046
20
91.730754
11
134.200000
21
90.807682
0
LINE
8
0
10
134.200000
20
90.807682
11
135.688880
21
90.075009
0
LINE
8
0
10
135.688880
20
90.075009
11
137.240863
21
89.551671
0
LINE
8
0
10
137.240863
20
89.551671
11
138.834914
21
89.237668
0
LINE
8
0
10
138.834914
20
89.237668
11
140.450000
21
89.133000
0
LINE
8
0
10
140.450000
20
89.133000
11
142.065086
21
89.237668
0
LINE
8
0
10
142.065086
20
89.237668
11
143.659137
21
89.551671
0
LINE
8
0
10
143.659137
20
89.551671
11
145.211120
21
90.075009
0
LINE
8
0
10
145.211120
20
90.075009
11
146.700000
21
90.807682
0
LINE
8
0
10
146.700000
20
90.807682
11
148.078954
21
91.730754
0
LINE
8
0
10
148.078954
20
91.730754
11
149.308170
21
92.813141
0
LINE
8
0
10
149.308170
20
92.813141
11
150.377130
21
94.036629
0
LINE
8
0
10
150.377130
20
94.036629
11
151.275318
21
95.383000
0
LINE
8
0
10
151.275318
20
95.383000
11
151.992215
21
96.834039
0
LINE
8
0
10
151.992215
20
96.834039
11
152.517307
21
98.371529
0
LINE
8
0
10
152.517307
20
98.371529
11
152.840074
21
99.977255
0
LINE
8
0
10
152.840074
20
99.977255
11
152.950000
21
101.633000
0
LINE
8
0
10
152.950000
20
101.633000
11
152.950000
21
101.633000
0
LINE
8
0
10
141.299000
20
157.155000
11
141.189074
21
158.810745
0
LINE
8
0
10
141.189074
20
158.810745
11
140.866307
21
160.416471
0
LINE
8
0
10
140.866307
20
160.416471
11
140.341215
21
161.953961
0
LINE
8
0
10
140.341215
20
161.953961
11
139.624318
21
163.405000
0
LINE
8
0
10
139.624318
20
163.405000
11
138.726130
21
164.751371
0
LINE
8
0
10
138.726130
20
164.751371
11
137.657170
21
165.974859
0
LINE
8
0
10
137.657170
20
165.974859
11
136.427954
21
167.057246
0
LINE
8
0
10
136.427954
20
167.057246
11
135.049000
21
167.980318
0
LINE
8
0
10
135.049000
20
167.980318
11
133.560120
21
168.712991
0
LINE
8
0
10
133.560120
20
168.712991
11
132.008137
21
169.236329
0
LINE
8
0
10
132.008137
20
169.236329
11
130.414086
21
169.550332
0
LINE
8
0
10
130.414086
20
169.550332
11
128.799000
21
169.655000
0
LINE
8
0
10
128.799000
20
169.655000
11
127.183914
21
169.550332
0
LINE
8
0
10
127.183914
20
169.550332
11
125.589863
21
169.236329
0
LINE
8
0
10
125.589863
20
169.236329
11
124.037880
21
168.712991
0
LINE
8
0
10
124.037880
20
168.712991
11
122.549000
21
167.980318
0
LINE
8
0
10
122.549000
20
167.980318
11
121.170046
21
167.057246
0
LINE
8
0
10
121.170046
20
167.057246
11
119.940830
21
165.974859
0
LINE
8
0
10
119.940830
20
165.974859
11
118.871870
21
164.751371
0
LINE
8
0
10
118.871870
20
164.751371
11
117.973682
21
163.405000
0
LINE
8
0
10
117.973682
20
163.405000
11
117.256785
21
161.953961
0
LINE
8
0
10
117.256785
20
161.953961
11
116.731693
21
160.416471
0
LINE
8
0
10
116.731693
20
160.416471
11
116.408926
21
158.810745
0
LINE
8
0
10
116.408926
20
158.810745
11
116.299000
21
157.155000
0
LINE
8
0
10
116.299000
20
157.155000
11
116.408926
21
155.499255
0
LINE
8
0
10
116.408926
20
155.499255
11
116.731693
21
153.893529
0
LINE
8
0
10
116.731693
20
153.893529
11
117.256785
21
152.356039
0
LINE
8
0
10
117.256785
20
152.356039
11
117.973682
21
150.905000
0
LINE
8
0
10
117.973682
20
150.905000
11
118.871870
21
149.558629
0
LINE
8
0
10
118.871870
20
149.558629
11
119.940830
21
148.335141
0
LINE
8
0
10
119.940830
20
148.335141
11
121.170046
21
147.252754
0
LINE
8
0
10
121.170046
20
147.252754
11
122.549000
21
146.329682
0
LINE
8
0
10
122.549000
20
146.329682
11
124.037880
21
145.597009
0
LINE
8
0
10
124.037880
20
145.597009
11
125.589863
21
145.073671
0
LINE
8
0
10
125.589863
20
145.073671
11
127.183914
21
144.759668
0
LINE
8
0
10
127.183914
20
144.759668
11
128.799000
21
144.655000
0
LINE
8
0
10
128.799000
20
144.655000
11
130.414086
21
144.759668
0
LINE
8
0
10
130.414086
20
144.759668
11
132.008137
21
145.073671
0
LINE
8
0
10
132.008137
20
145.073671
11
133.560120
21
145.597009
0
LINE
8
0
10
133.560120
20
145.597009
11
135.049000
21
146.329682
0
LINE
8
0
10
135.049000
20
146.329682
11
136.427954
21
147.252754
0
LINE
8
0
10
136.427954
20
147.252754
11
137.657170
21
148.335141
0
LINE
8
0
10
137.657170
20
148.335141
11
138.726130
21
149.558629
0
LINE
8
0
10
138.726130
20
149.558629
11
139.624318
21
150.905000
0
LINE
8
0
10
139.624318
20
150.905000
11
140.341215
21
152.356039
0
LINE
8
0
10
140.341215
20
152.356039
11
140.866307
21
153.893529
0
LINE
8
0
10
140.866307
20
153.893529
11
141.189074
21
155.499255
0
LINE
8
0
10
141.189074
20
155.499255
11
141.299000
21
157.155000
0
LINE
8
0
10
141.299000
20
157.155000
11
141.299000
21
157.155000
0
LINE
8
0
10
53.660200
20
155.415000
11
53.462301
21
156.386507
0
LINE
8
0
10
53.462301
20
156.386507
11
52.926203
21
157.179534
0
LINE
8
0
10
52.926203
20
157.179534
11
52.132106
21
157.714044
0
LINE
8
0
10
52.132106
20
157.714044
11
51.160205
21
157.910000
0
LINE
8
0
10
51.160205
20
157.910000
11
50.188304
21
157.714044
0
LINE
8
0
10
50.188304
20
157.714044
11
49.394207
21
157.179534
0
LINE
8
0
10
49.394207
20
157.179534
11
48.858109
21
156.386507
0
LINE
8
0
10
48.858109
20
156.386507
11
48.660210
21
155.415000
0
LINE
8
0
10
48.660210
20
155.415000
11
48.858109
21
154.443493
0
LINE
8
0
10
48.858109
20
154.443493
11
49.394207
21
153.650466
0
LINE
8
0
10
49.394207
20
153.650466
11
50.188304
21
153.115956
0
LINE
8
0
10
50.188304
20
153.115956
11
51.160205
21
152.920000
0
LINE
8
0
10
51.160205
20
152.920000
11
52.132106
21
153.115956
0
LINE
8
0
10
52.132106
20
153.115956
11
52.926203
21
153.650466
0
LINE
8
0
10
52.926203
20
153.650466
11
53.462301
21
154.443493
0
LINE
8
0
10
53.462301
20
154.443493
11
53.660200
21
155.415000
0
LINE
8
0
10
53.660200
20
155.415000
11
53.660200
21
155.415000
0
LINE
8
0
10
159.660000
20
155.415000
11
159.462101
21
156.386507
0
LINE
8
0
10
159.462101
20
156.386507
11
158.926003
21
157.179534
0
LINE
8
0
10
158.926003
20
157.179534
11
158.131906
21
157.714044
0
LINE
8
0
10
158.131906
20
157.714044
11
157.160005
21
157.910000
0
LINE
8
0
10
157.160005
20
157.910000
11
156.188104
21
157.714044
0
LINE
8
0
10
156.188104
20
157.714044
11
155.394007
21
157.179534
0
LINE
8
0
10
155.394007
20
157.179534
11
154.857909
21
156.386507
0
LINE
8
0
10
154.857909
20
156.386507
11
154.660010
21
155.415000
0
LINE
8
0
10
154.660010
20
155.415000
11
154.857909
21
154.443493
0
LINE
8
0
10
154.857909
20
154.443493
11
155.394007
21
153.650466
0
LINE
8
0
10
155.394007
20
153.650466
11
156.188104
21
153.115956
0
LINE
8
0
10
156.188104
20
153.115956
11
157.160005
21
152.920000
0
LINE
8
0
10
157.160005
20
152.920000
11
158.131906
21
153.115956
0
LINE
8
0
10
158.131906
20
153.115956
11
158.926003
21
153.650466
0
LINE
8
0
10
158.926003
20
153.650466
11
159.462101
21
154.443493
0
LINE
8
0
10
159.462101
20
154.443493
11
159.660000
21
155.415000
0
LINE
8
0
10
159.660000
20
155.415000
11
159.660000
21
155.415000
0
LINE
8
0
10
97.765500
20
162.771000
11
110.265000
21
162.771000
0
LINE
8
0
10
97.765500
20
162.771000
11
85.265500
21
162.771000
0
LINE
8
0
10
85.265500
20
162.771000
11
97.765500
21
162.771000
0
LINE
8
0
10
97.765500
20
175.270000
11
97.765500
21
162.771000
0
LINE
8
0
10
97.765500
20
150.272000
11
97.765500
21
162.771000
0
LINE
8
0
10
117.389000
20
192.093000
11
117.389000
21
179.593000
0
LINE
8
0
10
117.389000
20
192.093000
11
117.389000
21
204.593000
0
LINE
8
0
10
117.389000
20
192.093000
11
104.889000
21
192.093000
0
LINE
8
0
10
117.389000
20
192.093000
11
129.889000
21
192.093000
0
LINE
8
0
10
128.864000
20
247.785000
11
141.364000
21
247.785000
0
LINE
8
0
10
128.864000
20
247.785000
11
116.364000
21
247.785000
0
LINE
8
0
10
128.864000
20
247.785000
11
128.864000
21
260.285000
0
LINE
8
0
10
128.864000
20
247.785000
11
128.864000
21
235.285000
0
LINE
8
0
10
128.740000
20
218.695000
11
128.740000
21
231.195000
0
LINE
8
0
10
128.740000
20
218.695000
11
141.240000
21
218.695000
0
LINE
8
0
10
128.740000
20
218.695000
11
128.740000
21
206.195000
0
LINE
8
0
10
128.740000
20
218.695000
11
116.240000
21
218.695000
0
LINE
8
0
10
128.799000
20
157.154000
11
141.299000
21
157.154000
0
LINE
8
0
10
128.799000
20
157.154000
11
128.799000
21
169.655000
0
LINE
8
0
10
128.799000
20
157.154000
11
116.299000
21
157.154000
0
LINE
8
0
10
128.799000
20
157.154000
11
128.799000
21
144.655000
0
LINE
8
0
10
140.328000
20
130.587000
11
140.328000
21
143.089000
0
LINE
8
0
10
140.328000
20
130.587000
11
152.828000
21
130.587000
0
LINE
8
0
10
140.328000
20
130.587000
11
140.328000
21
118.088000
0
LINE
8
0
10
140.328000
20
130.587000
11
127.828000
21
130.587000
0
LINE
8
0
10
108.875000
20
136.154000
11
121.374000
21
136.154000
0
LINE
8
0
10
108.875000
20
136.154000
11
96.374600
21
136.154000
0
LINE
8
0
10
108.875000
20
136.154000
11
108.875000
21
148.653000
0
LINE
8
0
10
108.875000
20
136.154000
11
108.875000
21
123.652000
0
LINE
8
0
10
108.870000
20
107.306000
11
108.870000
21
119.805000
0
LINE
8
0
10
108.870000
20
107.306000
11
96.370100
21
107.306000
0
LINE
8
0
10
108.870000
20
107.306000
11
121.370000
21
107.306000
0
LINE
8
0
10
108.870000
20
107.306000
11
108.870000
21
94.807500
0
LINE
8
0
10
140.450000
20
101.634000
11
140.450000
21
114.133000
0
LINE
8
0
10
140.450000
20
101.634000
11
127.950000
21
101.634000
0
LINE
8
0
10
140.450000
20
101.634000
11
152.950000
21
101.634000
0
LINE
8
0
10
140.450000
20
101.634000
11
140.450000
21
89.132200
0
LINE
8
0
10
140.209000
20
72.654000
11
140.209000
21
85.155500
0
LINE
8
0
10
140.209000
20
72.654000
11
152.709000
21
72.654000
0
LINE
8
0
10
140.209000
20
72.654000
11
140.209000
21
60.155100
0
LINE
8
0
10
140.209000
20
72.654000
11
127.709000
21
72.654000
0
LINE
8
0
10
108.875000
20
78.096400
11
121.375000
21
78.096400
0
LINE
8
0
10
108.875000
20
78.096400
11
108.875000
21
90.595300
0
LINE
8
0
10
108.875000
20
78.096400
11
96.374600
21
78.096400
0
LINE
8
0
10
108.875000
20
78.096400
11
108.875000
21
65.594900
0
LINE
8
0
10
64.290700
20
174.593000
11
79.790500
21
174.593000
0
LINE
8
0
10
64.290700
20
174.593000
11
48.790700
21
174.593000
0
LINE
8
0
10
48.790700
20
174.593000
11
64.290700
21
174.593000
0
LINE
8
0
10
64.290700
20
174.593000
11
64.290700
21
190.091000
0
LINE
8
0
10
64.290700
20
174.593000
11
64.290700
21
159.091000
0
LINE
8
0
10
61.782700
20
159.657000
11
59.521597
21
160.252773
0
LINE
8
0
10
59.521597
20
160.252773
11
57.355497
21
161.241753
0
LINE
8
0
10
57.355497
20
161.241753
11
55.337280
21
162.569876
0
LINE
8
0
10
55.337280
20
162.569876
11
53.519820
21
164.183075
0
LINE
8
0
10
53.519820
20
164.183075
11
51.955995
21
166.027283
0
LINE
8
0
10
51.955995
20
166.027283
11
50.698682
21
168.048434
0
LINE
8
0
10
50.698682
20
168.048434
11
49.800758
21
170.192462
0
LINE
8
0
10
49.800758
20
170.192462
11
49.315100
21
172.405300
0
LINE
8
0
10
49.315100
20
172.405300
11
49.094409
21
174.283620
0
LINE
8
0
10
49.094409
20
174.283620
11
56.478600
21
174.283000
0
LINE
8
0
10
56.478600
20
174.283000
11
63.862800
21
174.283000
0
LINE
8
0
10
63.862800
20
174.283000
11
63.862800
21
166.770000
0
LINE
8
0
10
63.862800
20
166.770000
11
63.773355
21
159.298550
0
LINE
8
0
10
63.773355
20
159.298550
11
61.782695
21
159.656679
0
LINE
8
0
10
61.782695
20
159.656679
11
61.782700
21
159.657000
0
LINE
8
0
10
64.578400
20
166.824000
11
64.578400
21
174.283000
0
LINE
8
0
10
64.578400
20
174.283000
11
72.069100
21
174.283000
0
LINE
8
0
10
72.069100
20
174.283000
11
79.559900
21
174.283000
0
LINE
8
0
10
79.559900
20
174.283000
11
79.371181
21
172.941340
0
LINE
8
0
10
79.371181
20
172.941340
11
78.818386
21
170.446407
0
LINE
8
0
10
78.818386
20
170.446407
11
77.904395
21
168.124526
0
LINE
8
0
10
77.904395
20
168.124526
11
76.661114
21
166.008874
0
LINE
8
0
10
76.661114
20
166.008874
11
75.120449
21
164.132627
0
LINE
8
0
10
75.120449
20
164.132627
11
73.314308
21
162.528964
0
LINE
8
0
10
73.314308
20
162.528964
11
71.274595
21
161.231060
0
LINE
8
0
10
71.274595
20
161.231060
11
69.033217
21
160.272093
0
LINE
8
0
10
69.033217
20
160.272093
11
66.622081
21
159.685240
0
LINE
8
0
10
66.622081
20
159.685240
11
64.578301
21
159.364743
0
LINE
8
0
10
64.578301
20
159.364743
11
64.578400
21
166.824000
0
LINE
8
0
10
64.578400
20
182.333000
11
64.578400
21
189.668000
0
LINE
8
0
10
64.578400
20
189.668000
11
65.663000
21
189.668000
0
LINE
8
0
10
65.663000
20
189.668000
11
67.082325
21
189.457619
0
LINE
8
0
10
67.082325
20
189.457619
11
68.939546
21
188.916126
0
LINE
8
0
10
68.939546
20
188.916126
11
70.839782
21
188.178001
0
LINE
8
0
10
70.839782
20
188.178001
11
72.388150
21
187.377720
0
LINE
8
0
10
72.388150
20
187.377720
11
73.832935
21
186.251860
0
LINE
8
0
10
73.832935
20
186.251860
11
75.384983
21
184.717624
0
LINE
8
0
10
75.384983
20
184.717624
11
76.777959
21
183.063363
0
LINE
8
0
10
76.777959
20
183.063363
11
77.745530
21
181.577430
0
LINE
8
0
10
77.745530
20
181.577430
11
78.671514
21
179.218896
0
LINE
8
0
10
78.671514
20
179.218896
11
79.380250
21
176.162000
0
LINE
8
0
10
79.380250
20
176.162000
11
79.587048
21
174.999230
0
LINE
8
0
10
79.587048
20
174.999230
11
72.082700
21
174.999000
0
LINE
8
0
10
72.082700
20
174.999000
11
64.578400
21
174.999000
0
LINE
8
0
10
64.578400
20
174.999000
11
64.578400
21
182.333000
0
LINE
8
0
10
49.312000
20
176.836000
11
49.816054
21
179.082561
0
LINE
8
0
10
49.816054
20
179.082561
11
50.752388
21
181.263543
0
LINE
8
0
10
50.752388
20
181.263543
11
52.059884
21
183.317830
0
LINE
8
0
10
52.059884
20
183.317830
11
53.677426
21
185.184303
0
LINE
8
0
10
53.677426
20
185.184303
11
55.543895
21
186.801844
0
LINE
8
0
10
55.543895
20
186.801844
11
57.598176
21
188.109335
0
LINE
8
0
10
57.598176
20
188.109335
11
59.779150
21
189.045660
0
LINE
8
0
10
59.779150
20
189.045660
11
62.025700
21
189.549700
0
LINE
8
0
10
62.025700
20
189.549700
11
63.862830
21
189.767282
0
LINE
8
0
10
63.862830
20
189.767282
11
63.862800
21
182.383000
0
LINE
8
0
10
63.862800
20
182.383000
11
63.862800
21
174.999000
0
LINE
8
0
10
63.862800
20
174.999000
11
56.478600
21
174.999000
0
LINE
8
0
10
56.478600
20
174.999000
11
49.094400
21
174.999000
0
LINE
8
0
10
49.094400
20
174.999000
11
49.312000
21
176.836000
0
LINE
8
0
10
85.810200
20
164.800000
11
86.231092
21
166.557697
0
LINE
8
0
10
86.231092
20
166.557697
11
86.979231
21
168.254629
0
LINE
8
0
10
86.979231
20
168.254629
11
88.012347
21
169.849098
0
LINE
8
0
10
88.012347
20
169.849098
11
89.288168
21
171.299406
0
LINE
8
0
10
89.288168
20
171.299406
11
90.764424
21
172.563858
0
LINE
8
0
10
90.764424
20
172.563858
11
92.398845
21
173.600755
0
LINE
8
0
10
92.398845
20
173.600755
11
94.149161
21
174.368402
0
LINE
8
0
10
94.149161
20
174.368402
11
95.973100
21
174.825100
0
LINE
8
0
10
95.973100
20
174.825100
11
97.493640
21
175.061685
0
LINE
8
0
10
97.493640
20
175.061685
11
97.493700
21
169.127000
0
LINE
8
0
10
97.493700
20
169.127000
11
97.493700
21
163.192000
0
LINE
8
0
10
97.493700
20
163.192000
11
91.541700
21
163.192000
0
LINE
8
0
10
91.541700
20
163.192000
11
85.589800
21
163.192000
0
LINE
8
0
10
85.589800
20
163.192000
11
85.810200
21
164.800000
0
LINE
8
0
10
98.209200
20
169.135000
11
98.209200
21
175.078000
0
LINE
8
0
10
98.209200
20
175.078000
11
99.550860
21
174.843609
0
LINE
8
0
10
99.550860
20
174.843609
11
101.380109
21
174.305320
0
LINE
8
0
10
101.380109
20
174.305320
11
103.373011
21
173.376312
0
LINE
8
0
10
103.373011
20
173.376312
11
105.221998
21
172.223268
0
LINE
8
0
10
105.221998
20
172.223268
11
106.619500
21
171.012869
0
LINE
8
0
10
106.619500
20
171.012869
11
107.686653
21
169.608335
0
LINE
8
0
10
107.686653
20
169.608335
11
108.632290
21
167.944302
0
LINE
8
0
10
108.632290
20
167.944302
11
109.370612
21
166.194697
0
LINE
8
0
10
109.370612
20
166.194697
11
109.815820
21
164.533449
0
LINE
8
0
10
109.815820
20
164.533449
11
110.048206
21
163.191789
0
LINE
8
0
10
110.048206
20
163.191789
11
104.129000
21
163.192000
0
LINE
8
0
10
104.129000
20
163.192000
11
98.209200
21
163.192000
0
LINE
8
0
10
98.209200
20
163.192000
11
98.209200
21
169.135000
0
LINE
8
0
10
98.209200
20
156.573000
11
98.209200
21
162.477000
0
LINE
8
0
10
98.209200
20
162.477000
11
104.141000
21
162.477000
0
LINE
8
0
10
104.141000
20
162.477000
11
110.073000
21
162.477000
0
LINE
8
0
10
110.073000
20
162.477000
11
109.840495
21
161.314230
0
LINE
8
0
10
109.840495
20
161.314230
11
109.306089
21
159.122956
0
LINE
8
0
10
109.306089
20
159.122956
11
108.621898
21
157.406081
0
LINE
8
0
10
108.621898
20
157.406081
11
107.659695
21
155.913660
0
LINE
8
0
10
107.659695
20
155.913660
11
106.291255
21
154.395750
0
LINE
8
0
10
106.291255
20
154.395750
11
104.525750
21
152.884610
0
LINE
8
0
10
104.525750
20
152.884610
11
102.635172
21
151.707256
0
LINE
8
0
10
102.635172
20
151.707256
11
100.772469
21
150.942817
0
LINE
8
0
10
100.772469
20
150.942817
11
99.090585
21
150.670420
0
LINE
8
0
10
99.090585
20
150.670420
11
98.209200
21
150.670000
0
LINE
8
0
10
98.209200
20
150.670000
11
98.209200
21
156.573000
0
LINE
8
0
10
94.217900
20
151.169000
11
92.558827
21
151.879638
0
LINE
8
0
10
92.558827
20
151.879638
11
91.045132
21
152.766823
0
LINE
8
0
10
91.045132
20
152.766823
11
89.690965
21
153.814207
0
LINE
8
0
10
89.690965
20
153.814207
11
88.510480
21
155.005445
0
LINE
8
0
10
88.510480
20
155.005445
11
87.517829
21
156.324191
0
LINE
8
0
10
87.517829
20
156.324191
11
86.727163
21
157.754098
0
LINE
8
0
10
86.727163
20
157.754098
11
86.152636
21
159.278819
0
LINE
8
0
10
86.152636
20
159.278819
11
85.808400
21
160.882010
0
LINE
8
0
10
85.808400
20
160.882010
11
85.589788
21
162.476950
0
LINE
8
0
10
85.589788
20
162.476950
11
91.541700
21
162.477000
0
LINE
8
0
10
91.541700
20
162.477000
11
97.493700
21
162.477000
0
LINE
8
0
10
97.493700
20
162.477000
11
97.493700
21
156.573000
0
LINE
8
0
10
97.493700
20
156.573000
11
97.493700
21
150.670000
0
LINE
8
0
10
97.493700
20
150.670000
11
96.509819
21
150.685716
0
LINE
8
0
10
96.509819
20
150.685716
11
95.430742
21
150.834046
0
LINE
8
0
10
95.430742
20
150.834046
11
94.217979
21
151.168633
0
LINE
8
0
10
94.217979
20
151.168633
11
94.217900
21
151.169000
0
LINE
8
0
10
116.813000
20
158.528000
11
117.056699
21
160.084268
0
LINE
8
0
10
117.056699
20
160.084268
11
117.714919
21
161.884425
0
LINE
8
0
10
117.714919
20
161.884425
11
118.678341
21
163.685692
0
LINE
8
0
10
118.678341
20
163.685692
11
119.837650
21
165.245290
0
LINE
8
0
10
119.837650
20
165.245290
11
121.358499
21
166.649551
0
LINE
8
0
10
121.358499
20
166.649551
11
123.136882
21
167.816854
0
LINE
8
0
10
123.136882
20
167.816854
11
125.036275
21
168.672117
0
LINE
8
0
10
125.036275
20
168.672117
11
126.920150
21
169.140260
0
LINE
8
0
10
126.920150
20
169.140260
11
128.619580
21
169.371932
0
LINE
8
0
10
128.619580
20
169.371932
11
128.620000
21
163.420000
0
LINE
8
0
10
128.620000
20
163.420000
11
128.620000
21
157.468000
0
LINE
8
0
10
128.620000
20
157.468000
11
122.717000
21
157.468000
0
LINE
8
0
10
122.717000
20
157.468000
11
116.813000
21
157.468000
0
LINE
8
0
10
116.813000
20
157.468000
11
116.813000
21
158.528000
0
LINE
8
0
10
128.978000
20
163.420000
11
128.978000
21
169.372000
0
LINE
8
0
10
128.978000
20
169.372000
11
130.677430
21
169.140328
0
LINE
8
0
10
130.677430
20
169.140328
11
132.561299
21
168.672187
0
LINE
8
0
10
132.561299
20
168.672187
11
134.460689
21
167.816923
0
LINE
8
0
10
134.460689
20
167.816923
11
136.239071
21
166.649619
0
LINE
8
0
10
136.239071
20
166.649619
11
137.759920
21
165.245358
0
LINE
8
0
10
137.759920
20
165.245358
11
138.919224
21
163.685766
0
LINE
8
0
10
138.919224
20
163.685766
11
139.882648
21
161.884501
0
LINE
8
0
10
139.882648
20
161.884501
11
140.540869
21
160.084342
0
LINE
8
0
10
140.540869
20
160.084342
11
140.784570
21
158.528068
0
LINE
8
0
10
140.784570
20
158.528068
11
140.784000
21
157.468000
0
LINE
8
0
10
140.784000
20
157.468000
11
134.881000
21
157.468000
0
LINE
8
0
10
134.881000
20
157.468000
11
128.978000
21
157.468000
0
LINE
8
0
10
128.978000
20
157.468000
11
128.978000
21
163.420000
0
LINE
8
0
10
128.978000
20
150.818000
11
128.978000
21
156.752000
0
LINE
8
0
10
128.978000
20
156.752000
11
134.928000
21
156.752000
0
LINE
8
0
10
134.928000
20
156.752000
11
140.877000
21
156.752000
0
LINE
8
0
10
140.877000
20
156.752000
11
140.699182
21
155.174410
0
LINE
8
0
10
140.699182
20
155.174410
11
140.317022
21
153.408242
0
LINE
8
0
10
140.317022
20
153.408242
11
139.599897
21
151.709144
0
LINE
8
0
10
139.599897
20
151.709144
11
138.587719
21
150.116434
0
LINE
8
0
10
138.587719
20
150.116434
11
137.320397
21
148.669429
0
LINE
8
0
10
137.320397
20
148.669429
11
135.837842
21
147.407446
0
LINE
8
0
10
135.837842
20
147.407446
11
134.179964
21
146.369804
0
LINE
8
0
10
134.179964
20
146.369804
11
132.386674
21
145.595820
0
LINE
8
0
10
132.386674
20
145.595820
11
130.497882
21
145.124810
0
LINE
8
0
10
130.497882
20
145.124810
11
128.977342
21
144.882547
0
LINE
8
0
10
128.977342
20
144.882547
11
128.978000
21
150.818000
0
LINE
8
0
10
126.021000
20
145.335000
11
124.331544
21
145.887601
0
LINE
8
0
10
124.331544
20
145.887601
11
122.729027
21
146.709197
0
LINE
8
0
10
122.729027
20
146.709197
11
121.248430
21
147.762059
0
LINE
8
0
10
121.248430
20
147.762059
11
119.924735
21
149.008453
0
LINE
8
0
10
119.924735
20
149.008453
11
118.792924
21
150.410646
0
LINE
8
0
10
118.792924
20
150.410646
11
117.887978
21
151.930909
0
LINE
8
0
10
117.887978
20
151.930909
11
117.244880
21
153.531507
0
LINE
8
0
10
117.244880
20
153.531507
11
116.898610
21
155.174710
0
LINE
8
0
10
116.898610
20
155.174710
11
116.720792
21
156.752300
0
LINE
8
0
10
116.720792
20
156.752300
11
122.670000
21
156.752000
0
LINE
8
0
10
122.670000
20
156.752000
11
128.620000
21
156.752000
0
LINE
8
0
10
128.620000
20
156.752000
11
128.620000
21
150.849000
0
LINE
8
0
10
128.620000
20
150.849000
11
128.606419
21
147.119210
0
LINE
8
0
10
128.606419
20
147.119210
11
128.533611
21
146.039523
0
LINE
8
0
10
128.533611
20
146.039523
11
128.367165
21
145.378034
0
LINE
8
0
10
128.367165
20
145.378034
11
128.069859
21
145.055790
0
LINE
8
0
10
128.069859
20
145.055790
11
127.604473
21
144.993838
0
LINE
8
0
10
127.604473
20
144.993838
11
126.020580
21
145.334990
0
LINE
8
0
10
126.020580
20
145.334990
11
126.021000
21
145.335000
0
LINE
8
0
10
113.710000
20
180.523000
11
112.185594
21
181.114737
0
LINE
8
0
10
112.185594
20
181.114737
11
110.793127
21
181.904579
0
LINE
8
0
10
110.793127
20
181.904579
11
109.494017
21
182.918381
0
LINE
8
0
10
109.494017
20
182.918381
11
108.249680
21
184.182000
0
LINE
8
0
10
108.249680
20
184.182000
11
107.155777
21
185.694728
0
LINE
8
0
10
107.155777
20
185.694728
11
106.235704
21
187.464610
0
LINE
8
0
10
106.235704
20
187.464610
11
105.601499
21
189.236352
0
LINE
8
0
10
105.601499
20
189.236352
11
105.365200
21
190.754660
0
LINE
8
0
10
105.365200
20
190.754660
11
105.365000
21
191.814000
0
LINE
8
0
10
105.365000
20
191.814000
11
111.268000
21
191.814000
0
LINE
8
0
10
111.268000
20
191.814000
11
117.171000
21
191.814000
0
LINE
8
0
10
117.171000
20
191.814000
11
117.171000
21
185.911000
0
LINE
8
0
10
117.171000
20
185.911000
11
117.171000
21
180.008000
0
LINE
8
0
10
117.171000
20
180.008000
11
116.187119
21
180.031945
0
LINE
8
0
10
116.187119
20
180.031945
11
113.709229
21
180.523024
0
LINE
8
0
10
113.709229
20
180.523024
11
113.710000
21
180.523000
0
LINE
8
0
10
117.529000
20
185.911000
11
117.529000
21
191.814000
0
LINE
8
0
10
117.529000
20
191.814000
11
123.589000
21
191.814000
0
LINE
8
0
10
123.589000
20
191.814000
11
129.648000
21
191.814000
0
LINE
8
0
10
129.648000
20
191.814000
11
129.449282
21
190.472340
0
LINE
8
0
10
129.449282
20
190.472340
11
128.957840
21
188.518905
0
LINE
8
0
10
128.957840
20
188.518905
11
128.096147
21
186.582230
0
LINE
8
0
10
128.096147
20
186.582230
11
126.929167
21
184.781980
0
LINE
8
0
10
126.929167
20
184.781980
11
125.521862
21
183.237820
0
LINE
8
0
10
125.521862
20
183.237820
11
123.869220
21
181.967305
0
LINE
8
0
10
123.869220
20
181.967305
11
122.026586
21
180.941944
0
LINE
8
0
10
122.026586
20
180.941944
11
120.198259
21
180.256923
0
LINE
8
0
10
120.198259
20
180.256923
11
118.588542
21
180.007430
0
LINE
8
0
10
118.588542
20
180.007430
11
117.529000
21
180.008000
0
LINE
8
0
10
117.529000
20
180.008000
11
117.529000
21
185.911000
0
LINE
8
0
10
117.529000
20
198.464000
11
117.529000
21
204.399000
0
LINE
8
0
10
117.529000
20
204.399000
11
119.049540
21
204.156737
0
LINE
8
0
10
119.049540
20
204.156737
11
120.969382
21
203.692192
0
LINE
8
0
10
120.969382
20
203.692192
11
122.754952
21
202.943748
0
LINE
8
0
10
122.754952
20
202.943748
11
124.384926
21
201.932854
0
LINE
8
0
10
124.384926
20
201.932854
11
125.837977
21
200.680959
0
LINE
8
0
10
125.837977
20
200.680959
11
127.092780
21
199.209510
0
LINE
8
0
10
127.092780
20
199.209510
11
128.128009
21
197.539958
0
LINE
8
0
10
128.128009
20
197.539958
11
128.922337
21
195.693751
0
LINE
8
0
10
128.922337
20
195.693751
11
129.454440
21
193.692337
0
LINE
8
0
10
129.454440
20
193.692337
11
129.675483
21
192.529567
0
LINE
8
0
10
129.675483
20
192.529567
11
123.602000
21
192.530000
0
LINE
8
0
10
123.602000
20
192.530000
11
117.529000
21
192.530000
0
LINE
8
0
10
117.529000
20
192.530000
11
117.529000
21
198.464000
0
LINE
8
0
10
105.488000
20
194.138000
11
105.908783
21
195.904877
0
LINE
8
0
10
105.908783
20
195.904877
11
106.654132
21
197.605692
0
LINE
8
0
10
106.654132
20
197.605692
11
107.683134
21
199.200083
0
LINE
8
0
10
107.683134
20
199.200083
11
108.954873
21
200.647693
0
LINE
8
0
10
108.954873
20
200.647693
11
110.428434
21
201.908159
0
LINE
8
0
10
110.428434
20
201.908159
11
112.062902
21
202.941122
0
LINE
8
0
10
112.062902
20
202.941122
11
113.817363
21
203.706223
0
LINE
8
0
10
113.817363
20
203.706223
11
115.650900
21
204.163100
0
LINE
8
0
10
115.650900
20
204.163100
11
117.171450
21
204.399685
0
LINE
8
0
10
117.171450
20
204.399685
11
117.171000
21
198.464000
0
LINE
8
0
10
117.171000
20
198.464000
11
117.171000
21
192.530000
0
LINE
8
0
10
117.171000
20
192.530000
11
111.219000
21
192.530000
0
LINE
8
0
10
111.219000
20
192.530000
11
105.267000
21
192.530000
0
LINE
8
0
10
105.267000
20
192.530000
11
105.488000
21
194.138000
0
LINE
8
0
10
116.658000
20
220.347000
11
117.149765
21
222.247054
0
LINE
8
0
10
117.149765
20
222.247054
11
117.923617
21
224.035899
0
LINE
8
0
10
117.923617
20
224.035899
11
118.948598
21
225.681912
0
LINE
8
0
10
118.948598
20
225.681912
11
120.193750
21
227.153470
0
LINE
8
0
10
120.193750
20
227.153470
11
121.628115
21
228.418951
0
LINE
8
0
10
121.628115
20
228.418951
11
123.220733
21
229.446731
0
LINE
8
0
10
123.220733
20
229.446731
11
124.940648
21
230.205189
0
LINE
8
0
10
124.940648
20
230.205189
11
126.756900
21
230.662700
0
LINE
8
0
10
126.756900
20
230.662700
11
128.262240
21
230.903415
0
LINE
8
0
10
128.262240
20
230.903415
11
128.262000
21
224.954000
0
LINE
8
0
10
128.262000
20
224.954000
11
128.262000
21
219.005000
0
LINE
8
0
10
128.262000
20
219.005000
11
122.343000
21
219.005000
0
LINE
8
0
10
122.343000
20
219.005000
11
116.423000
21
219.005000
0
LINE
8
0
10
116.423000
20
219.005000
11
116.658000
21
220.347000
0
LINE
8
0
10
128.978000
20
224.957000
11
128.978000
21
230.909000
0
LINE
8
0
10
128.978000
20
230.909000
11
130.572940
21
230.690388
0
LINE
8
0
10
130.572940
20
230.690388
11
132.394724
21
230.258234
0
LINE
8
0
10
132.394724
20
230.258234
11
134.149670
21
229.496743
0
LINE
8
0
10
134.149670
20
229.496743
11
135.791779
21
228.451827
0
LINE
8
0
10
135.791779
20
228.451827
11
137.275054
21
227.169399
0
LINE
8
0
10
137.275054
20
227.169399
11
138.553496
21
225.695369
0
LINE
8
0
10
138.553496
20
225.695369
11
139.581106
21
224.075649
0
LINE
8
0
10
139.581106
20
224.075649
11
140.311887
21
222.356151
0
LINE
8
0
10
140.311887
20
222.356151
11
140.699840
21
220.582788
0
LINE
8
0
10
140.699840
20
220.582788
11
140.877658
21
219.005198
0
LINE
8
0
10
140.877658
20
219.005198
11
134.928000
21
219.005000
0
LINE
8
0
10
134.928000
20
219.005000
11
128.978000
21
219.005000
0
LINE
8
0
10
128.978000
20
219.005000
11
128.978000
21
224.957000
0
LINE
8
0
10
128.978000
20
212.355000
11
128.978000
21
218.290000
0
LINE
8
0
10
128.978000
20
218.290000
11
134.930000
21
218.290000
0
LINE
8
0
10
134.930000
20
218.290000
11
140.882000
21
218.290000
0
LINE
8
0
10
140.882000
20
218.290000
11
140.661629
21
216.682220
0
LINE
8
0
10
140.661629
20
216.682220
11
140.242197
21
214.894841
0
LINE
8
0
10
140.242197
20
214.894841
11
139.506089
21
213.187792
0
LINE
8
0
10
139.506089
20
213.187792
11
138.490081
21
211.597329
0
LINE
8
0
10
138.490081
20
211.597329
11
137.230951
21
210.159710
0
LINE
8
0
10
137.230951
20
210.159710
11
135.765474
21
208.911192
0
LINE
8
0
10
135.765474
20
208.911192
11
134.130427
21
207.888033
0
LINE
8
0
10
134.130427
20
207.888033
11
132.362587
21
207.126490
0
LINE
8
0
10
132.362587
20
207.126490
11
130.498729
21
206.662820
0
LINE
8
0
10
130.498729
20
206.662820
11
128.978189
21
206.420557
0
LINE
8
0
10
128.978189
20
206.420557
11
128.978000
21
212.355000
0
LINE
8
0
10
125.502000
20
207.002000
11
123.829247
21
207.652770
0
LINE
8
0
10
123.829247
20
207.652770
11
122.285117
21
208.510311
0
LINE
8
0
10
122.285117
20
208.510311
11
120.886286
21
209.555874
0
LINE
8
0
10
120.886286
20
209.555874
11
119.649429
21
210.770713
0
LINE
8
0
10
119.649429
20
210.770713
11
118.591221
21
212.136079
0
LINE
8
0
10
118.591221
20
212.136079
11
117.728339
21
213.633225
0
LINE
8
0
10
117.728339
20
213.633225
11
117.077456
21
215.243405
0
LINE
8
0
10
117.077456
20
215.243405
11
116.655250
21
216.947870
0
LINE
8
0
10
116.655250
20
216.947870
11
116.422867
21
218.289530
0
LINE
8
0
10
116.422867
20
218.289530
11
122.343000
21
218.290000
0
LINE
8
0
10
122.343000
20
218.290000
11
128.262000
21
218.290000
0
LINE
8
0
10
128.262000
20
218.290000
11
128.262000
21
212.386000
0
LINE
8
0
10
128.262000
20
212.386000
11
128.242590
21
208.619641
0
LINE
8
0
10
128.242590
20
208.619641
11
128.160921
21
207.528191
0
LINE
8
0
10
128.160921
20
207.528191
11
127.980250
21
206.865011
0
LINE
8
0
10
127.980250
20
206.865011
11
127.662307
21
206.555440
0
LINE
8
0
10
127.662307
20
206.555440
11
127.168821
21
206.524816
0
LINE
8
0
10
127.168821
20
206.524816
11
125.502140
21
207.001760
0
LINE
8
0
10
125.502140
20
207.001760
11
125.502000
21
207.002000
0
LINE
8
0
10
116.813000
20
249.045000
11
117.056715
21
250.601367
0
LINE
8
0
10
117.056715
20
250.601367
11
117.715001
21
252.401590
0
LINE
8
0
10
117.715001
20
252.401590
11
118.678569
21
254.202976
0
LINE
8
0
10
118.678569
20
254.202976
11
119.838130
21
255.762830
0
LINE
8
0
10
119.838130
20
255.762830
11
121.400823
21
257.232938
0
LINE
8
0
10
121.400823
20
257.232938
11
123.151476
21
258.412779
0
LINE
8
0
10
123.151476
20
258.412779
11
124.990384
21
259.246425
0
LINE
8
0
10
124.990384
20
259.246425
11
126.817840
21
259.677950
0
LINE
8
0
10
126.817840
20
259.677950
11
128.619570
21
259.891336
0
LINE
8
0
10
128.619570
20
259.891336
11
128.620000
21
253.938000
0
LINE
8
0
10
128.620000
20
253.938000
11
128.620000
21
247.985000
0
LINE
8
0
10
128.620000
20
247.985000
11
122.717000
21
247.985000
0
LINE
8
0
10
122.717000
20
247.985000
11
116.813000
21
247.985000
0
LINE
8
0
10
116.813000
20
247.985000
11
116.813000
21
249.045000
0
LINE
8
0
10
129.336000
20
253.888000
11
129.336000
21
259.791000
0
LINE
8
0
10
129.336000
20
259.791000
11
130.498770
21
259.787508
0
LINE
8
0
10
130.498770
20
259.787508
11
131.728987
21
259.567171
0
LINE
8
0
10
131.728987
20
259.567171
11
133.320104
21
258.990630
0
LINE
8
0
10
133.320104
20
258.990630
11
134.994941
21
258.175958
0
LINE
8
0
10
134.994941
20
258.175958
11
136.476320
21
257.241227
0
LINE
8
0
10
136.476320
20
257.241227
11
137.731476
21
256.036634
0
LINE
8
0
10
137.731476
20
256.036634
11
138.925117
21
254.400211
0
LINE
8
0
10
138.925117
20
254.400211
11
139.923815
21
252.544495
0
LINE
8
0
10
139.923815
20
252.544495
11
140.594140
21
250.682017
0
LINE
8
0
10
140.594140
20
250.682017
11
141.142573
21
248.267037
0
LINE
8
0
10
141.142573
20
248.267037
11
139.408482
21
248.067447
0
LINE
8
0
10
139.408482
20
248.067447
11
135.239283
21
247.984431
0
LINE
8
0
10
135.239283
20
247.984431
11
129.336000
21
247.985000
0
LINE
8
0
10
129.336000
20
247.985000
11
129.336000
21
253.888000
0
LINE
8
0
10
129.336000
20
241.591000
11
129.336000
21
247.627000
0
LINE
8
0
10
129.336000
20
247.627000
11
135.255000
21
247.627000
0
LINE
8
0
10
135.255000
20
247.627000
11
141.175000
21
247.627000
0
LINE
8
0
10
141.175000
20
247.627000
11
140.927697
21
246.285340
0
LINE
8
0
10
140.927697
20
246.285340
11
140.416055
21
244.245333
0
LINE
8
0
10
140.416055
20
244.245333
11
139.673239
21
242.396816
0
LINE
8
0
10
139.673239
20
242.396816
11
138.708086
21
240.748953
0
LINE
8
0
10
138.708086
20
240.748953
11
137.529435
21
239.310910
0
LINE
8
0
10
137.529435
20
239.310910
11
136.146122
21
238.091852
0
LINE
8
0
10
136.146122
20
238.091852
11
134.566986
21
237.100944
0
LINE
8
0
10
134.566986
20
237.100944
11
132.800865
21
236.347352
0
LINE
8
0
10
132.800865
20
236.347352
11
130.856597
21
235.840240
0
LINE
8
0
10
130.856597
20
235.840240
11
129.336047
21
235.555049
0
LINE
8
0
10
129.336047
20
235.555049
11
129.336000
21
241.591000
0
LINE
8
0
10
126.600000
20
235.835000
11
124.800268
21
236.370186
0
LINE
8
0
10
124.800268
20
236.370186
11
123.030750
21
237.235190
0
LINE
8
0
10
123.030750
20
237.235190
11
121.376934
21
238.379827
0
LINE
8
0
10
121.376934
20
238.379827
11
119.924310
21
239.753910
0
LINE
8
0
10
119.924310
20
239.753910
11
118.719050
21
241.360036
0
LINE
8
0
10
118.719050
20
241.360036
11
117.729454
21
243.182775
0
LINE
8
0
10
117.729454
20
243.182775
11
117.059468
21
244.994489
0
LINE
8
0
10
117.059468
20
244.994489
11
116.813040
21
246.567540
0
LINE
8
0
10
116.813040
20
246.567540
11
116.813000
21
247.627000
0
LINE
8
0
10
116.813000
20
247.627000
11
122.717000
21
247.627000
0
LINE
8
0
10
122.717000
20
247.627000
11
128.620000
21
247.627000
0
LINE
8
0
10
128.620000
20
247.627000
11
128.620000
21
241.545000
0
LINE
8
0
10
128.620000
20
241.545000
11
128.541178
21
237.260984
0
LINE
8
0
10
128.541178
20
237.260984
11
128.351668
21
235.502030
0
LINE
8
0
10
128.351668
20
235.502030
11
126.600378
21
235.834733
0
LINE
8
0
10
126.600378
20
235.834733
11
126.600000
21
235.835000
0
LINE
8
0
10
149.729000
20
222.225000
11
149.729000
21
252.636000
0
LINE
8
0
10
149.729000
20
252.636000
11
154.738000
21
252.636000
0
LINE
8
0
10
154.738000
20
252.636000
11
159.746000
21
252.636000
0
LINE
8
0
10
159.746000
20
252.636000
11
159.746000
21
222.225000
0
LINE
8
0
10
159.746000
20
222.225000
11
159.746000
21
191.814000
0
LINE
8
0
10
159.746000
20
191.814000
11
154.738000
21
191.814000
0
LINE
8
0
10
154.738000
20
191.814000
11
149.729000
21
191.814000
0
LINE
8
0
10
149.729000
20
191.814000
11
149.729000
21
222.225000
0
LINE
8
0
10
140.784000
20
136.936000
11
140.784000
21
142.879000
0
LINE
8
0
10
140.784000
20
142.879000
11
142.125660
21
142.644609
0
LINE
8
0
10
142.125660
20
142.644609
11
143.954909
21
142.106319
0
LINE
8
0
10
143.954909
20
142.106319
11
145.947811
21
141.177311
0
LINE
8
0
10
145.947811
20
141.177311
11
147.796798
21
140.024267
0
LINE
8
0
10
147.796798
20
140.024267
11
149.194300
21
138.813869
0
LINE
8
0
10
149.194300
20
138.813869
11
150.261453
21
137.409335
0
LINE
8
0
10
150.261453
20
137.409335
11
151.207090
21
135.745302
0
LINE
8
0
10
151.207090
20
135.745302
11
151.945412
21
133.995697
0
LINE
8
0
10
151.945412
20
133.995697
11
152.390620
21
132.334449
0
LINE
8
0
10
152.390620
20
132.334449
11
152.623003
21
130.992789
0
LINE
8
0
10
152.623003
20
130.992789
11
146.704000
21
130.992000
0
LINE
8
0
10
146.704000
20
130.992000
11
140.784000
21
130.992000
0
LINE
8
0
10
140.784000
20
130.992000
11
140.784000
21
136.936000
0
LINE
8
0
10
136.589000
20
119.006000
11
135.020763
21
119.652729
0
LINE
8
0
10
135.020763
20
119.652729
11
133.544268
21
120.538546
0
LINE
8
0
10
133.544268
20
120.538546
11
132.188951
21
121.628435
0
LINE
8
0
10
132.188951
20
121.628435
11
130.984249
21
122.887379
0
LINE
8
0
10
130.984249
20
122.887379
11
129.959599
21
124.280360
0
LINE
8
0
10
129.959599
20
124.280360
11
129.144438
21
125.772362
0
LINE
8
0
10
129.144438
20
125.772362
11
128.568202
21
127.328367
0
LINE
8
0
10
128.568202
20
127.328367
11
128.260330
21
128.913360
0
LINE
8
0
10
128.260330
20
128.913360
11
128.103416
21
130.433700
0
LINE
8
0
10
128.103416
20
130.433700
11
134.110000
21
130.434000
0
LINE
8
0
10
134.110000
20
130.434000
11
140.116000
21
130.434000
0
LINE
8
0
10
140.116000
20
130.434000
11
140.116000
21
124.466000
0
LINE
8
0
10
140.116000
20
124.466000
11
140.116000
21
118.498000
0
LINE
8
0
10
140.116000
20
118.498000
11
139.098700
21
118.512579
0
LINE
8
0
10
139.098700
20
118.512579
11
137.941945
21
118.663714
0
LINE
8
0
10
137.941945
20
118.663714
11
136.589360
21
119.006608
0
LINE
8
0
10
136.589360
20
119.006608
11
136.589000
21
119.006000
0
LINE
8
0
10
140.659000
20
124.428000
11
140.659000
21
130.434000
0
LINE
8
0
10
140.659000
20
130.434000
11
146.627000
21
130.434000
0
LINE
8
0
10
146.627000
20
130.434000
11
151.498897
21
130.361708
0
LINE
8
0
10
151.498897
20
130.361708
11
152.370567
21
130.241981
0
LINE
8
0
10
152.370567
20
130.241981
11
152.595160
21
130.040433
0
LINE
8
0
10
152.595160
20
130.040433
11
152.179601
21
127.819637
0
LINE
8
0
10
152.179601
20
127.819637
11
151.288000
21
125.308943
0
LINE
8
0
10
151.288000
20
125.308943
11
150.577541
21
124.056458
0
LINE
8
0
10
150.577541
20
124.056458
11
149.677386
21
122.870938
0
LINE
8
0
10
149.677386
20
122.870938
11
148.621705
21
121.777695
0
LINE
8
0
10
148.621705
20
121.777695
11
147.444664
21
120.802038
0
LINE
8
0
10
147.444664
20
120.802038
11
146.180431
21
119.969279
0
LINE
8
0
10
146.180431
20
119.969279
11
144.863174
21
119.304728
0
LINE
8
0
10
144.863174
20
119.304728
11
143.527061
21
118.833696
0
LINE
8
0
10
143.527061
20
118.833696
11
142.206260
21
118.581493
0
LINE
8
0
10
142.206260
20
118.581493
11
140.658840
21
118.421785
0
LINE
8
0
10
140.658840
20
118.421785
11
140.659000
21
124.428000
0
LINE
8
0
10
128.180000
20
131.799000
11
128.340327
21
132.881945
0
LINE
8
0
10
128.340327
20
132.881945
11
128.754563
21
134.295536
0
LINE
8
0
10
128.754563
20
134.295536
11
129.322592
21
135.747687
0
LINE
8
0
10
129.322592
20
135.747687
11
129.944300
21
136.946310
0
LINE
8
0
10
129.944300
20
136.946310
11
131.663623
21
139.121012
0
LINE
8
0
10
131.663623
20
139.121012
11
132.669396
21
140.035074
0
LINE
8
0
10
132.669396
20
140.035074
11
133.766044
21
140.829408
0
LINE
8
0
10
133.766044
20
140.829408
11
136.212360
21
142.046287
0
LINE
8
0
10
136.212360
20
142.046287
11
138.963370
21
142.746440
0
LINE
8
0
10
138.963370
20
142.746440
11
140.116310
21
142.919321
0
LINE
8
0
10
140.116310
20
142.919321
11
140.116000
21
136.948000
0
LINE
8
0
10
140.116000
20
136.948000
11
140.116000
21
130.977000
0
LINE
8
0
10
140.116000
20
130.977000
11
134.148000
21
130.977000
0
LINE
8
0
10
134.148000
20
130.977000
11
128.180000
21
130.977000
0
LINE
8
0
10
128.180000
20
130.977000
11
128.180000
21
131.799000
0
LINE
8
0
10
128.298000
20
102.967000
11
128.821540
21
105.083431
0
LINE
8
0
10
128.821540
20
105.083431
11
129.606005
21
107.014851
0
LINE
8
0
10
129.606005
20
107.014851
11
130.634165
21
108.743642
0
LINE
8
0
10
130.634165
20
108.743642
11
131.888789
21
110.252189
0
LINE
8
0
10
131.888789
20
110.252189
11
133.352645
21
111.522874
0
LINE
8
0
10
133.352645
20
111.522874
11
135.008503
21
112.538082
0
LINE
8
0
10
135.008503
20
112.538082
11
136.839131
21
113.280196
0
LINE
8
0
10
136.839131
20
113.280196
11
138.827300
21
113.731600
0
LINE
8
0
10
138.827300
20
113.731600
11
140.115880
21
113.919261
0
LINE
8
0
10
140.115880
20
113.919261
11
140.116000
21
107.935000
0
LINE
8
0
10
140.116000
20
107.935000
11
140.116000
21
101.950000
0
LINE
8
0
10
140.116000
20
101.950000
11
134.118000
21
101.950000
0
LINE
8
0
10
134.118000
20
101.950000
11
128.119000
21
101.950000
0
LINE
8
0
10
128.119000
20
101.950000
11
128.298000
21
102.967000
0
LINE
8
0
10
140.659000
20
107.918000
11
140.665845
21
111.753804
0
LINE
8
0
10
140.665845
20
111.753804
11
140.731008
21
112.852577
0
LINE
8
0
10
140.731008
20
112.852577
11
140.887648
21
113.516143
0
LINE
8
0
10
140.887648
20
113.516143
11
141.173501
21
113.827659
0
LINE
8
0
10
141.173501
20
113.827659
11
141.626306
21
113.870285
0
LINE
8
0
10
141.626306
20
113.870285
11
143.183720
21
113.481500
0
LINE
8
0
10
143.183720
20
113.481500
11
145.486407
21
112.666337
0
LINE
8
0
10
145.486407
20
112.666337
11
147.525759
21
111.496743
0
LINE
8
0
10
147.525759
20
111.496743
11
149.275661
21
109.991155
0
LINE
8
0
10
149.275661
20
109.991155
11
150.710000
21
108.168010
0
LINE
8
0
10
150.710000
20
108.168010
11
151.400962
21
106.876640
0
LINE
8
0
10
151.400962
20
106.876640
11
152.004995
21
105.370133
0
LINE
8
0
10
152.004995
20
105.370133
11
152.432858
21
103.905441
0
LINE
8
0
10
152.432858
20
103.905441
11
152.595310
21
102.739520
0
LINE
8
0
10
152.595310
20
102.739520
11
152.595000
21
101.950000
0
LINE
8
0
10
152.595000
20
101.950000
11
146.627000
21
101.950000
0
LINE
8
0
10
146.627000
20
101.950000
11
140.659000
21
101.950000
0
LINE
8
0
10
140.659000
20
101.950000
11
140.659000
21
107.918000
0
LINE
8
0
10
136.796000
20
89.997700
11
135.161830
21
90.651055
0
LINE
8
0
10
135.161830
20
90.651055
11
133.666290
21
91.514524
0
LINE
8
0
10
133.666290
20
91.514524
11
132.321989
21
92.572867
0
LINE
8
0
10
132.321989
20
92.572867
11
131.141536
21
93.810845
0
LINE
8
0
10
131.141536
20
93.810845
11
130.137540
21
95.213217
0
LINE
8
0
10
130.137540
20
95.213217
11
129.322610
21
96.764744
0
LINE
8
0
10
129.322610
20
96.764744
11
128.709353
21
98.450185
0
LINE
8
0
10
128.709353
20
98.450185
11
128.310380
21
100.254300
0
LINE
8
0
10
128.310380
20
100.254300
11
128.131932
21
101.407240
0
LINE
8
0
10
128.131932
20
101.407240
11
134.124000
21
101.407000
0
LINE
8
0
10
134.124000
20
101.407000
11
140.116000
21
101.407000
0
LINE
8
0
10
140.116000
20
101.407000
11
140.116000
21
95.439100
0
LINE
8
0
10
140.116000
20
95.439100
11
140.116000
21
89.470900
0
LINE
8
0
10
140.116000
20
89.470900
11
139.234341
21
89.485478
0
LINE
8
0
10
139.234341
20
89.485478
11
136.796061
21
89.997680
0
LINE
8
0
10
136.796061
20
89.997680
11
136.796000
21
89.997700
0
LINE
8
0
10
140.659000
20
95.439100
11
140.659000
21
101.407000
0
LINE
8
0
10
140.659000
20
101.407000
11
146.664000
21
101.407000
0
LINE
8
0
10
146.664000
20
101.407000
11
152.670000
21
101.407000
0
LINE
8
0
10
152.670000
20
101.407000
11
152.488565
21
99.847140
0
LINE
8
0
10
152.488565
20
99.847140
11
152.251584
21
98.638967
0
LINE
8
0
10
152.251584
20
98.638967
11
151.830380
21
97.399328
0
LINE
8
0
10
151.830380
20
97.399328
11
150.524914
21
94.959637
0
LINE
8
0
10
150.524914
20
94.959637
11
148.751396
21
92.796025
0
LINE
8
0
10
148.751396
20
92.796025
11
147.745127
21
91.901486
0
LINE
8
0
10
147.745127
20
91.901486
11
146.689055
21
91.176450
0
LINE
8
0
10
146.689055
20
91.176450
11
145.441847
21
90.567511
0
LINE
8
0
10
145.441847
20
90.567511
11
143.965195
21
90.019198
0
LINE
8
0
10
143.965195
20
90.019198
11
142.540376
21
89.623069
0
LINE
8
0
10
142.540376
20
89.623069
11
141.448665
21
89.470680
0
LINE
8
0
10
141.448665
20
89.470680
11
140.659000
21
89.470900
0
LINE
8
0
10
140.659000
20
89.470900
11
140.659000
21
95.439100
0
LINE
8
0
10
109.190000
20
113.615000
11
109.261628
21
118.321659
0
LINE
8
0
10
109.261628
20
118.321659
11
109.365954
21
119.294837
0
LINE
8
0
10
109.365954
20
119.294837
11
109.529100
21
119.579150
0
LINE
8
0
10
109.529100
20
119.579150
11
111.864733
21
119.090747
0
LINE
8
0
10
111.864733
20
119.090747
11
114.285040
21
118.254550
0
LINE
8
0
10
114.285040
20
118.254550
11
115.556465
21
117.496857
0
LINE
8
0
10
115.556465
20
117.496857
11
116.730501
21
116.585112
0
LINE
8
0
10
116.730501
20
116.585112
11
117.793619
21
115.538170
0
LINE
8
0
10
117.793619
20
115.538170
11
118.732290
21
114.374885
0
LINE
8
0
10
118.732290
20
114.374885
11
119.532983
21
113.114113
0
LINE
8
0
10
119.532983
20
113.114113
11
120.182169
21
111.774710
0
LINE
8
0
10
120.182169
20
111.774710
11
120.666318
21
110.375531
0
LINE
8
0
10
120.666318
20
110.375531
11
120.971900
21
108.935430
0
LINE
8
0
10
120.971900
20
108.935430
11
121.159561
21
107.646850
0
LINE
8
0
10
121.159561
20
107.646850
11
115.175000
21
107.647000
0
LINE
8
0
10
115.175000
20
107.647000
11
109.190000
21
107.647000
0
LINE
8
0
10
109.190000
20
107.647000
11
109.190000
21
113.615000
0
LINE
8
0
10
96.711300
20
108.436000
11
97.225258
21
110.877010
0
LINE
8
0
10
97.225258
20
110.877010
11
97.872223
21
112.534010
0
LINE
8
0
10
97.872223
20
112.534010
11
98.730030
21
114.047979
0
LINE
8
0
10
98.730030
20
114.047979
11
99.784218
21
115.406841
0
LINE
8
0
10
99.784218
20
115.406841
11
101.020323
21
116.598520
0
LINE
8
0
10
101.020323
20
116.598520
11
102.423882
21
117.610939
0
LINE
8
0
10
102.423882
20
117.610939
11
103.980433
21
118.432023
0
LINE
8
0
10
103.980433
20
118.432023
11
105.675513
21
119.049696
0
LINE
8
0
10
105.675513
20
119.049696
11
107.494658
21
119.451880
0
LINE
8
0
10
107.494658
20
119.451880
11
108.647598
21
119.630325
0
LINE
8
0
10
108.647598
20
119.630325
11
108.648000
21
113.639000
0
LINE
8
0
10
108.648000
20
113.639000
11
108.648000
21
107.647000
0
LINE
8
0
10
108.648000
20
107.647000
11
102.679000
21
107.647000
0
LINE
8
0
10
102.679000
20
107.647000
11
96.711300
21
107.647000
0
LINE
8
0
10
96.711300
20
107.647000
11
96.711300
21
108.436000
0
LINE
8
0
10
106.070000
20
124.309000
11
104.525989
21
124.801249
0
LINE
8
0
10
104.525989
20
124.801249
11
103.081125
21
125.474552
0
LINE
8
0
10
103.081125
20
125.474552
11
101.748458
21
126.316632
0
LINE
8
0
10
101.748458
20
126.316632
11
100.541037
21
127.315217
0
LINE
8
0
10
100.541037
20
127.315217
11
99.471912
21
128.458032
0
LINE
8
0
10
99.471912
20
128.458032
11
98.554131
21
129.732802
0
LINE
8
0
10
98.554131
20
129.732802
11
97.800744
21
131.127253
0
LINE
8
0
10
97.800744
20
131.127253
11
97.224800
21
132.629110
0
LINE
8
0
10
97.224800
20
132.629110
11
96.710842
21
135.070120
0
LINE
8
0
10
96.710842
20
135.070120
11
96.711300
21
135.860000
0
LINE
8
0
10
96.711300
20
135.860000
11
102.679000
21
135.860000
0
LINE
8
0
10
102.679000
20
135.860000
11
108.648000
21
135.860000
0
LINE
8
0
10
108.648000
20
135.860000
11
108.648000
21
129.892000
0
LINE
8
0
10
108.648000
20
129.892000
11
108.648000
21
123.923000
0
LINE
8
0
10
108.648000
20
123.923000
11
108.037620
21
123.946072
0
LINE
8
0
10
108.037620
20
123.946072
11
106.070840
21
124.308516
0
LINE
8
0
10
106.070840
20
124.308516
11
106.070000
21
124.309000
0
LINE
8
0
10
96.711300
20
137.167000
11
97.157432
21
139.408161
0
LINE
8
0
10
97.157432
20
139.408161
11
98.122800
21
141.934350
0
LINE
8
0
10
98.122800
20
141.934350
11
98.873317
21
143.093693
0
LINE
8
0
10
98.873317
20
143.093693
11
99.940830
21
144.337335
0
LINE
8
0
10
99.940830
20
144.337335
11
101.177472
21
145.510199
0
LINE
8
0
10
101.177472
20
145.510199
11
102.435380
21
146.457210
0
LINE
8
0
10
102.435380
20
146.457210
11
103.723928
21
147.146195
0
LINE
8
0
10
103.723928
20
147.146195
11
105.229071
21
147.749075
0
LINE
8
0
10
105.229071
20
147.749075
11
106.693011
21
148.176400
0
LINE
8
0
10
106.693011
20
148.176400
11
107.857950
21
148.338720
0
LINE
8
0
10
107.857950
20
148.338720
11
108.648000
21
148.339000
0
LINE
8
0
10
108.648000
20
148.339000
11
108.648000
21
142.370000
0
LINE
8
0
10
108.648000
20
142.370000
11
108.648000
21
136.402000
0
LINE
8
0
10
108.648000
20
136.402000
11
102.679000
21
136.402000
0
LINE
8
0
10
102.679000
20
136.402000
11
96.711300
21
136.402000
0
LINE
8
0
10
96.711300
20
136.402000
11
96.711300
21
137.167000
0
LINE
8
0
10
109.190000
20
142.405000
11
109.190000
21
148.409000
0
LINE
8
0
10
109.190000
20
148.409000
11
110.546820
21
148.229009
0
LINE
8
0
10
110.546820
20
148.229009
11
112.130258
21
147.898519
0
LINE
8
0
10
112.130258
20
147.898519
11
113.654603
21
147.345342
0
LINE
8
0
10
113.654603
20
147.345342
11
115.096805
21
146.588062
0
LINE
8
0
10
115.096805
20
146.588062
11
116.433813
21
145.645263
0
LINE
8
0
10
116.433813
20
145.645263
11
117.642575
21
144.535531
0
LINE
8
0
10
117.642575
20
144.535531
11
118.700041
21
143.277450
0
LINE
8
0
10
118.700041
20
143.277450
11
119.583160
21
141.889604
0
LINE
8
0
10
119.583160
20
141.889604
11
120.268880
21
140.390579
0
LINE
8
0
10
120.268880
20
140.390579
11
120.996277
21
137.680709
0
LINE
8
0
10
120.996277
20
137.680709
11
121.187914
21
136.402789
0
LINE
8
0
10
121.187914
20
136.402789
11
115.189000
21
136.402000
0
LINE
8
0
10
115.189000
20
136.402000
11
109.190000
21
136.402000
0
LINE
8
0
10
109.190000
20
136.402000
11
109.190000
21
142.405000
0
LINE
8
0
10
109.190000
20
129.892000
11
109.190000
21
135.860000
0
LINE
8
0
10
109.190000
20
135.860000
11
115.189000
21
135.860000
0
LINE
8
0
10
115.189000
20
135.860000
11
121.188000
21
135.860000
0
LINE
8
0
10
121.188000
20
135.860000
11
120.994820
21
134.571780
0
LINE
8
0
10
120.994820
20
134.571780
11
120.584453
21
132.746494
0
LINE
8
0
10
120.584453
20
132.746494
11
119.927941
21
131.040176
0
LINE
8
0
10
119.927941
20
131.040176
11
119.042033
21
129.471378
0
LINE
8
0
10
119.042033
20
129.471378
11
117.943478
21
128.058655
0
LINE
8
0
10
117.943478
20
128.058655
11
116.649025
21
126.820560
0
LINE
8
0
10
116.649025
20
126.820560
11
115.175421
21
125.775647
0
LINE
8
0
10
115.175421
20
125.775647
11
113.539417
21
124.942469
0
LINE
8
0
10
113.539417
20
124.942469
11
111.757760
21
124.339580
0
LINE
8
0
10
111.757760
20
124.339580
11
110.172561
21
123.942517
0
LINE
8
0
10
110.172561
20
123.942517
11
109.711999
21
123.982213
0
LINE
8
0
10
109.711999
20
123.982213
11
109.421480
21
124.291691
0
LINE
8
0
10
109.421480
20
124.291691
11
109.262516
21
124.954175
0
LINE
8
0
10
109.262516
20
124.954175
11
109.196622
21
126.052887
0
LINE
8
0
10
109.196622
20
126.052887
11
109.190090
21
129.891890
0
LINE
8
0
10
109.190090
20
129.891890
11
109.190000
21
129.892000
0
LINE
8
0
10
105.528000
20
95.548200
11
103.437744
21
96.453268
0
LINE
8
0
10
103.437744
20
96.453268
11
101.446213
21
97.761138
0
LINE
8
0
10
101.446213
20
97.761138
11
99.717867
21
99.344006
0
LINE
8
0
10
99.717867
20
99.344006
11
98.417170
21
101.074070
0
LINE
8
0
10
98.417170
20
101.074070
11
97.808231
21
102.321278
0
LINE
8
0
10
97.808231
20
102.321278
11
97.259918
21
103.797931
0
LINE
8
0
10
97.259918
20
103.797931
11
96.863789
21
105.222754
0
LINE
8
0
10
96.863789
20
105.222754
11
96.711400
21
106.314470
0
LINE
8
0
10
96.711400
20
106.314470
11
96.711300
21
107.104000
0
LINE
8
0
10
96.711300
20
107.104000
11
102.679000
21
107.104000
0
LINE
8
0
10
102.679000
20
107.104000
11
108.648000
21
107.104000
0
LINE
8
0
10
108.648000
20
107.104000
11
108.648000
21
101.136000
0
LINE
8
0
10
108.648000
20
101.136000
11
108.648000
21
95.167800
0
LINE
8
0
10
108.648000
20
95.167800
11
107.630700
21
95.185950
0
LINE
8
0
10
107.630700
20
95.185950
11
105.528280
21
95.548177
0
LINE
8
0
10
105.528280
20
95.548177
11
105.528000
21
95.548200
0
LINE
8
0
10
109.190000
20
101.136000
11
109.190000
21
107.104000
0
LINE
8
0
10
109.190000
20
107.104000
11
115.158000
21
107.104000
0
LINE
8
0
10
115.158000
20
107.104000
11
118.993804
21
107.097155
0
LINE
8
0
10
118.993804
20
107.097155
11
120.092577
21
107.031993
0
LINE
8
0
10
120.092577
20
107.031993
11
120.756143
21
106.875353
0
LINE
8
0
10
120.756143
20
106.875353
11
121.067659
21
106.589500
0
LINE
8
0
10
121.067659
20
106.589500
11
121.110285
21
106.136695
0
LINE
8
0
10
121.110285
20
106.136695
11
120.721500
21
104.579280
0
LINE
8
0
10
120.721500
20
104.579280
11
119.906337
21
102.276593
0
LINE
8
0
10
119.906337
20
102.276593
11
118.736743
21
100.237241
0
LINE
8
0
10
118.736743
20
100.237241
11
117.231155
21
98.487339
0
LINE
8
0
10
117.231155
20
98.487339
11
115.408010
21
97.053000
0
LINE
8
0
10
115.408010
20
97.053000
11
114.116638
21
96.362036
0
LINE
8
0
10
114.116638
20
96.362036
11
112.610128
21
95.758004
0
LINE
8
0
10
112.610128
20
95.758004
11
111.145433
21
95.330142
0
LINE
8
0
10
111.145433
20
95.330142
11
109.979510
21
95.167690
0
LINE
8
0
10
109.979510
20
95.167690
11
109.190000
21
95.167800
0
LINE
8
0
10
109.190000
20
95.167800
11
109.190000
21
101.136000
0
LINE
8
0
10
96.788700
20
79.640000
11
97.199928
21
81.575511
0
LINE
8
0
10
97.199928
20
81.575511
11
97.941373
21
83.407955
0
LINE
8
0
10
97.941373
20
83.407955
11
98.976315
21
85.100432
0
LINE
8
0
10
98.976315
20
85.100432
11
100.268035
21
86.616038
0
LINE
8
0
10
100.268035
20
86.616038
11
101.779814
21
87.917870
0
LINE
8
0
10
101.779814
20
87.917870
11
103.474930
21
88.969026
0
LINE
8
0
10
103.474930
20
88.969026
11
105.316666
21
89.732604
0
LINE
8
0
10
105.316666
20
89.732604
11
107.268300
21
90.171700
0
LINE
8
0
10
107.268300
20
90.171700
11
108.647620
21
90.354675
0
LINE
8
0
10
108.647620
20
90.354675
11
108.648000
21
84.351500
0
LINE
8
0
10
108.648000
20
84.351500
11
108.648000
21
78.348400
0
LINE
8
0
10
108.648000
20
78.348400
11
102.642000
21
78.348400
0
LINE
8
0
10
102.642000
20
78.348400
11
96.635700
21
78.348400
0
LINE
8
0
10
96.635700
20
78.348400
11
96.788700
21
79.640000
0
LINE
8
0
10
109.190000
20
84.353500
11
109.190000
21
90.358500
0
LINE
8
0
10
109.190000
20
90.358500
11
110.478580
21
90.190305
0
LINE
8
0
10
110.478580
20
90.190305
11
112.413751
21
89.761331
0
LINE
8
0
10
112.413751
20
89.761331
11
114.235933
21
89.013072
0
LINE
8
0
10
114.235933
20
89.013072
11
115.912982
21
87.977811
0
LINE
8
0
10
115.912982
20
87.977811
11
117.412757
21
86.687832
0
LINE
8
0
10
117.412757
20
86.687832
11
118.703117
21
85.175418
0
LINE
8
0
10
118.703117
20
85.175418
11
119.751918
21
83.472853
0
LINE
8
0
10
119.751918
20
83.472853
11
120.527020
21
81.612421
0
LINE
8
0
10
120.527020
20
81.612421
11
120.996280
21
79.626405
0
LINE
8
0
10
120.996280
20
79.626405
11
121.187917
21
78.348485
0
LINE
8
0
10
121.187917
20
78.348485
11
115.189000
21
78.348400
0
LINE
8
0
10
115.189000
20
78.348400
11
109.190000
21
78.348400
0
LINE
8
0
10
109.190000
20
78.348400
11
109.190000
21
84.353500
0
LINE
8
0
10
109.190000
20
71.837700
11
109.190000
21
77.805900
0
LINE
8
0
10
109.190000
20
77.805900
11
115.193000
21
77.805900
0
LINE
8
0
10
115.193000
20
77.805900
11
121.196000
21
77.805900
0
LINE
8
0
10
121.196000
20
77.805900
11
121.018036
21
76.652960
0
LINE
8
0
10
121.018036
20
76.652960
11
120.594350
21
74.766748
0
LINE
8
0
10
120.594350
20
74.766748
11
119.934198
21
73.020473
0
LINE
8
0
10
119.934198
20
73.020473
11
119.050283
21
71.428309
0
LINE
8
0
10
119.050283
20
71.428309
11
117.955304
21
70.004430
0
LINE
8
0
10
117.955304
20
70.004430
11
116.661962
21
68.763011
0
LINE
8
0
10
116.661962
20
68.763011
11
115.182960
21
67.718227
0
LINE
8
0
10
115.182960
20
67.718227
11
113.530998
21
66.884252
0
LINE
8
0
10
113.530998
20
66.884252
11
111.718776
21
66.275260
0
LINE
8
0
10
111.718776
20
66.275260
11
110.158957
21
65.885755
0
LINE
8
0
10
110.158957
20
65.885755
11
109.705480
21
65.928126
0
LINE
8
0
10
109.705480
20
65.928126
11
109.419222
21
66.239465
0
LINE
8
0
10
109.419222
20
66.239465
11
109.262381
21
66.902936
0
LINE
8
0
10
109.262381
20
66.902936
11
109.197155
21
68.001705
0
LINE
8
0
10
109.197155
20
68.001705
11
109.190336
21
71.837790
0
LINE
8
0
10
109.190336
20
71.837790
11
109.190000
21
71.837700
0
LINE
8
0
10
105.884000
20
66.268300
11
104.367945
21
66.788019
0
LINE
8
0
10
104.367945
20
66.788019
11
102.951661
21
67.479085
0
LINE
8
0
10
102.951661
20
67.479085
11
101.647220
21
68.329918
0
LINE
8
0
10
101.647220
20
68.329918
11
100.466695
21
69.328934
0
LINE
8
0
10
100.466695
20
69.328934
11
99.422158
21
70.464553
0
LINE
8
0
10
99.422158
20
70.464553
11
98.525682
21
71.725193
0
LINE
8
0
10
98.525682
20
71.725193
11
97.789338
21
73.099272
0
LINE
8
0
10
97.789338
20
73.099272
11
97.225200
21
74.575210
0
LINE
8
0
10
97.225200
20
74.575210
11
96.711242
21
77.016220
0
LINE
8
0
10
96.711242
20
77.016220
11
96.711300
21
77.805900
0
LINE
8
0
10
96.711300
20
77.805900
11
102.679000
21
77.805900
0
LINE
8
0
10
102.679000
20
77.805900
11
108.648000
21
77.805900
0
LINE
8
0
10
108.648000
20
77.805900
11
108.648000
21
71.837700
0
LINE
8
0
10
108.648000
20
71.837700
11
108.648000
21
65.869600
0
LINE
8
0
10
108.648000
20
65.869600
11
107.901979
21
65.893862
0
LINE
8
0
10
107.901979
20
65.893862
11
105.884439
21
66.268321
0
LINE
8
0
10
105.884439
20
66.268321
11
105.884000
21
66.268300
0
LINE
8
0
10
137.194000
20
60.864600
11
135.439699
21
61.474322
0
LINE
8
0
10
135.439699
20
61.474322
11
133.832275
21
62.311356
0
LINE
8
0
10
133.832275
20
62.311356
11
132.385592
21
63.359992
0
LINE
8
0
10
132.385592
20
63.359992
11
131.113514
21
64.604523
0
LINE
8
0
10
131.113514
20
64.604523
11
130.029905
21
66.029237
0
LINE
8
0
10
130.029905
20
66.029237
11
129.148629
21
67.618428
0
LINE
8
0
10
129.148629
20
67.618428
11
128.483549
21
69.356385
0
LINE
8
0
10
128.483549
20
69.356385
11
128.048530
21
71.227400
0
LINE
8
0
10
128.048530
20
71.227400
11
127.860361
21
72.380340
0
LINE
8
0
10
127.860361
20
72.380340
11
133.853000
21
72.380300
0
LINE
8
0
10
133.853000
20
72.380300
11
139.845000
21
72.380300
0
LINE
8
0
10
139.845000
20
72.380300
11
139.845000
21
66.412100
0
LINE
8
0
10
139.845000
20
66.412100
11
139.845000
21
60.444000
0
LINE
8
0
10
139.845000
20
60.444000
11
139.234620
21
60.461859
0
LINE
8
0
10
139.234620
20
60.461859
11
137.194640
21
60.864597
0
LINE
8
0
10
137.194640
20
60.864597
11
137.194000
21
60.864600
0
LINE
8
0
10
140.387000
20
66.412100
11
140.387000
21
72.380300
0
LINE
8
0
10
140.387000
20
72.380300
11
146.393000
21
72.380300
0
LINE
8
0
10
146.393000
20
72.380300
11
152.400000
21
72.380300
0
LINE
8
0
10
152.400000
20
72.380300
11
152.244319
21
70.871900
0
LINE
8
0
10
152.244319
20
70.871900
11
152.016163
21
69.648749
0
LINE
8
0
10
152.016163
20
69.648749
11
151.593719
21
68.395703
0
LINE
8
0
10
151.593719
20
68.395703
11
150.255210
21
65.930403
0
LINE
8
0
10
150.255210
20
65.930403
11
148.407275
21
63.736950
0
LINE
8
0
10
148.407275
20
63.736950
11
147.348050
21
62.823715
0
LINE
8
0
10
147.348050
20
62.823715
11
146.228399
21
62.076300
0
LINE
8
0
10
146.228399
20
62.076300
11
144.985709
21
61.483462
0
LINE
8
0
10
144.985709
20
61.483462
11
143.529197
21
60.959888
0
LINE
8
0
10
143.529197
20
60.959888
11
142.117432
21
60.586442
0
LINE
8
0
10
142.117432
20
60.586442
11
141.008989
21
60.443990
0
LINE
8
0
10
141.008989
20
60.443990
11
140.387000
21
60.444000
0
LINE
8
0
10
140.387000
20
60.444000
11
140.387000
21
66.412100
0
LINE
8
0
10
140.387000
20
78.891000
11
140.387000
21
84.859200
0
LINE
8
0
10
140.387000
20
84.859200
11
141.009000
21
84.859200
0
LINE
8
0
10
141.009000
20
84.859200
11
142.079015
21
84.721446
0
LINE
8
0
10
142.079015
20
84.721446
11
143.472037
21
84.363198
0
LINE
8
0
10
143.472037
20
84.363198
11
146.131830
21
83.315310
0
LINE
8
0
10
146.131830
20
83.315310
11
147.239122
21
82.597623
0
LINE
8
0
10
147.239122
20
82.597623
11
148.301505
21
81.690444
0
LINE
8
0
10
148.301505
20
81.690444
11
150.185231
21
79.462129
0
LINE
8
0
10
150.185231
20
79.462129
11
150.953418
21
78.218251
0
LINE
8
0
10
150.953418
20
78.218251
11
151.570382
21
76.939399
0
LINE
8
0
10
151.570382
20
76.939399
11
152.009546
21
75.664202
0
LINE
8
0
10
152.009546
20
75.664202
11
152.244330
21
74.431290
0
LINE
8
0
10
152.244330
20
74.431290
11
152.400011
21
72.922890
0
LINE
8
0
10
152.400011
20
72.922890
11
146.393000
21
72.922800
0
LINE
8
0
10
146.393000
20
72.922800
11
140.387000
21
72.922800
0
LINE
8
0
10
140.387000
20
72.922800
11
140.387000
21
78.891000
0
LINE
8
0
10
128.027000
20
73.940100
11
128.387632
21
75.539443
0
LINE
8
0
10
128.387632
20
75.539443
11
128.886481
21
77.032698
0
LINE
8
0
10
128.886481
20
77.032698
11
129.519491
21
78.413963
0
LINE
8
0
10
129.519491
20
78.413963
11
130.282601
21
79.677334
0
LINE
8
0
10
130.282601
20
79.677334
11
131.171754
21
80.816909
0
LINE
8
0
10
131.171754
20
80.816909
11
132.182890
21
81.826787
0
LINE
8
0
10
132.182890
20
81.826787
11
133.311952
21
82.701065
0
LINE
8
0
10
133.311952
20
82.701065
11
134.554880
21
83.433840
0
LINE
8
0
10
134.554880
20
83.433840
11
137.051114
21
84.395963
0
LINE
8
0
10
137.051114
20
84.395963
11
139.215870
21
84.859110
0
LINE
8
0
10
139.215870
20
84.859110
11
139.845000
21
84.859200
0
LINE
8
0
10
139.845000
20
84.859200
11
139.845000
21
78.891000
0
LINE
8
0
10
139.845000
20
78.891000
11
139.845000
21
72.922800
0
LINE
8
0
10
139.845000
20
72.922800
11
133.846000
21
72.922800
0
LINE
8
0
10
133.846000
20
72.922800
11
127.848000
21
72.922800
0
LINE
8
0
10
127.848000
20
72.922800
11
128.027000
21
73.940100
0
LINE
8
0
10
155.702000
20
153.888000
11
155.283603
21
154.449087
0
LINE
8
0
10
155.283603
20
154.449087
11
155.071294
21
155.054605
0
LINE
8
0
10
155.071294
20
155.054605
11
155.049537
21
155.667802
0
LINE
8
0
10
155.049537
20
155.667802
11
155.202797
21
156.251925
0
LINE
8
0
10
155.202797
20
156.251925
11
155.515537
21
156.770220
0
LINE
8
0
10
155.515537
20
156.770220
11
155.972222
21
157.185935
0
LINE
8
0
10
155.972222
20
157.185935
11
156.557315
21
157.462316
0
LINE
8
0
10
156.557315
20
157.462316
11
157.255280
21
157.562610
0
LINE
8
0
10
157.255280
20
157.562610
11
158.024533
21
157.377350
0
LINE
8
0
10
158.024533
20
157.377350
11
158.705093
21
156.892058
0
LINE
8
0
10
158.705093
20
156.892058
11
159.191076
21
156.212467
0
LINE
8
0
10
159.191076
20
156.212467
11
159.376600
21
155.444310
0
LINE
8
0
10
159.376600
20
155.444310
11
159.273672
21
154.774756
0
LINE
8
0
10
159.273672
20
154.774756
11
158.990895
21
154.207877
0
LINE
8
0
10
158.990895
20
154.207877
11
158.567280
21
153.760194
0
LINE
8
0
10
158.567280
20
153.760194
11
158.041836
21
153.448230
0
LINE
8
0
10
158.041836
20
153.448230
11
157.453575
21
153.288506
0
LINE
8
0
10
157.453575
20
153.288506
11
156.841507
21
153.297546
0
LINE
8
0
10
156.841507
20
153.297546
11
156.244642
21
153.491869
0
LINE
8
0
10
156.244642
20
153.491869
11
155.701990
21
153.888000
0
LINE
8
0
10
155.701990
20
153.888000
11
155.702000
21
153.888000
0
LINE
8
0
10
49.631900
20
153.888000
11
49.232421
21
154.432228
0
LINE
8
0
10
49.232421
20
154.432228
11
49.032590
21
155.029833
0
LINE
8
0
10
49.032590
20
155.029833
11
49.016515
21
155.641998
0
LINE
8
0
10
49.016515
20
155.641998
11
49.168304
21
156.229905
0
LINE
8
0
10
49.168304
20
156.229905
11
49.472066
21
156.754737
0
LINE
8
0
10
49.472066
20
156.754737
11
49.911909
21
157.177677
0
LINE
8
0
10
49.911909
20
157.177677
11
50.471941
21
157.459907
0
LINE
8
0
10
50.471941
20
157.459907
11
51.136270
21
157.562610
0
LINE
8
0
10
51.136270
20
157.562610
11
51.945870
21
157.380343
0
LINE
8
0
10
51.945870
20
157.380343
11
52.639612
21
156.895713
0
LINE
8
0
10
52.639612
20
156.895713
11
53.124243
21
156.201970
0
LINE
8
0
10
53.124243
20
156.201970
11
53.306510
21
155.392370
0
LINE
8
0
10
53.306510
20
155.392370
11
53.124243
21
154.582770
0
LINE
8
0
10
53.124243
20
154.582770
11
52.639612
21
153.889027
0
LINE
8
0
10
52.639612
20
153.889027
11
51.945870
21
153.404397
0
LINE
8
0
10
51.945870
20
153.404397
11
51.136270
21
153.222130
0
LINE
8
0
10
51.136270
20
153.222130
11
50.343276
21
153.397664
0
LINE
8
0
10
50.343276
20
153.397664
11
49.631900
21
153.887998
0
LINE
8
0
10
49.631900
20
153.887998
11
49.631900
21
153.888000
0
LINE
8
0
10
49.631900
20
257.516000
11
49.232421
21
258.060228
0
LINE
8
0
10
49.232421
20
258.060228
11
49.032590
21
258.657833
0
LINE
8
0
10
49.032590
20
258.657833
11
49.016515
21
259.269998
0
LINE
8
0
10
49.016515
20
259.269998
11
49.168304
21
259.857905
0
LINE
8
0
10
49.168304
20
259.857905
11
49.472066
21
260.382737
0
LINE
8
0
10
49.472066
20
260.382737
11
49.911909
21
260.805677
0
LINE
8
0
10
49.911909
20
260.805677
11
50.471941
21
261.087907
0
LINE
8
0
10
50.471941
20
261.087907
11
51.136270
21
261.190610
0
LINE
8
0
10
51.136270
20
261.190610
11
51.945870
21
261.008343
0
LINE
8
0
10
51.945870
20
261.008343
11
52.639612
21
260.523712
0
LINE
8
0
10
52.639612
20
260.523712
11
53.124243
21
259.829970
0
LINE
8
0
10
53.124243
20
259.829970
11
53.306510
21
259.020370
0
LINE
8
0
10
53.306510
20
259.020370
11
53.124243
21
258.210770
0
LINE
8
0
10
53.124243
20
258.210770
11
52.639612
21
257.517028
0
LINE
8
0
10
52.639612
20
257.517028
11
51.945870
21
257.032397
0
LINE
8
0
10
51.945870
20
257.032397
11
51.136270
21
256.850130
0
LINE
8
0
10
51.136270
20
256.850130
11
50.343276
21
257.025664
0
LINE
8
0
10
50.343276
20
257.025664
11
49.631900
21
257.515998
0
LINE
8
0
10
49.631900
20
257.515998
11
49.631900
21
257.516000
0
LINE
8
0
10
155.702000
20
257.516000
11
155.302521
21
258.060228
0
LINE
8
0
10
155.302521
20
258.060228
11
155.102690
21
258.657833
0
LINE
8
0
10
155.102690
20
258.657833
11
155.086614
21
259.269998
0
LINE
8
0
10
155.086614
20
259.269998
11
155.238403
21
259.857905
0
LINE
8
0
10
155.238403
20
259.857905
11
155.542165
21
260.382737
0
LINE
8
0
10
155.542165
20
260.382737
11
155.982008
21
260.805677
0
LINE
8
0
10
155.982008
20
260.805677
11
156.542040
21
261.087907
0
LINE
8
0
10
156.542040
20
261.087907
11
157.206370
21
261.190610
0
LINE
8
0
10
157.206370
20
261.190610
11
158.015970
21
261.008343
0
LINE
8
0
10
158.015970
20
261.008343
11
158.709712
21
260.523712
0
LINE
8
0
10
158.709712
20
260.523712
11
159.194343
21
259.829970
0
LINE
8
0
10
159.194343
20
259.829970
11
159.376610
21
259.020370
0
LINE
8
0
10
159.376610
20
259.020370
11
159.194343
21
258.210770
0
LINE
8
0
10
159.194343
20
258.210770
11
158.709712
21
257.517028
0
LINE
8
0
10
158.709712
20
257.517028
11
158.015970
21
257.032397
0
LINE
8
0
10
158.015970
20
257.032397
11
157.206370
21
256.850130
0
LINE
8
0
10
157.206370
20
256.850130
11
156.413379
21
257.025664
0
LINE
8
0
10
156.413379
20
257.025664
11
155.702000
21
257.515998
0
LINE
8
0
10
155.702000
20
257.515998
11
155.702000
21
257.516000
0
LINE
8
0
10
50.186800
20
60.489200
11
49.395359
21
61.171272
0
LINE
8
0
10
49.395359
20
61.171272
11
49.012914
21
61.994791
0
LINE
8
0
10
49.012914
20
61.994791
11
49.052785
21
62.892817
0
LINE
8
0
10
49.052785
20
62.892817
11
49.528290
21
63.798410
0
LINE
8
0
10
49.528290
20
63.798410
11
50.032359
21
64.253584
0
LINE
8
0
10
50.032359
20
64.253584
11
50.620762
21
64.495601
0
LINE
8
0
10
50.620762
20
64.495601
11
51.246791
21
64.541458
0
LINE
8
0
10
51.246791
20
64.541458
11
51.863737
21
64.408156
0
LINE
8
0
10
51.863737
20
64.408156
11
52.424892
21
64.112695
0
LINE
8
0
10
52.424892
20
64.112695
11
52.883546
21
63.672074
0
LINE
8
0
10
52.883546
20
63.672074
11
53.192992
21
63.103293
0
LINE
8
0
10
53.192992
20
63.103293
11
53.306520
21
62.423350
0
LINE
8
0
10
53.306520
20
62.423350
11
53.226021
21
61.853325
0
LINE
8
0
10
53.226021
20
61.853325
11
53.002668
21
61.343341
0
LINE
8
0
10
53.002668
20
61.343341
11
52.236271
21
60.570988
0
LINE
8
0
10
52.236271
20
60.570988
11
51.225069
21
60.241280
0
LINE
8
0
10
51.225069
20
60.241280
11
50.695709
21
60.284604
0
LINE
8
0
10
50.695709
20
60.284604
11
50.186800
21
60.489210
0
LINE
8
0
10
50.186800
20
60.489210
11
50.186800
21
60.489200
0
LINE
8
0
10
155.702000
20
60.838600
11
155.286449
21
61.395337
0
LINE
8
0
10
155.286449
20
61.395337
11
155.071756
21
61.998814
0
LINE
8
0
10
155.071756
20
61.998814
11
155.043040
21
62.611745
0
LINE
8
0
10
155.043040
20
62.611745
11
155.185423
21
63.196844
0
LINE
8
0
10
155.185423
20
63.196844
11
155.484026
21
63.716825
0
LINE
8
0
10
155.484026
20
63.716825
11
155.923969
21
64.134404
0
LINE
8
0
10
155.923969
20
64.134404
11
156.490374
21
64.412294
0
LINE
8
0
10
156.490374
20
64.412294
11
157.168360
21
64.513210
0
LINE
8
0
10
157.168360
20
64.513210
11
157.938196
21
64.340576
0
LINE
8
0
10
157.938196
20
64.340576
11
158.650079
21
63.896699
0
LINE
8
0
10
158.650079
20
63.896699
11
159.173162
21
63.292612
0
LINE
8
0
10
159.173162
20
63.292612
11
159.376600
21
62.639350
0
LINE
8
0
10
159.376600
20
62.639350
11
159.275982
21
61.907302
0
LINE
8
0
10
159.275982
20
61.907302
11
158.998814
21
61.283805
0
LINE
8
0
10
158.998814
20
61.283805
11
158.582127
21
60.787005
0
LINE
8
0
10
158.582127
20
60.787005
11
158.062952
21
60.435049
0
LINE
8
0
10
158.062952
20
60.435049
11
157.478321
21
60.246084
0
LINE
8
0
10
157.478321
20
60.246084
11
156.865262
21
60.238258
0
LINE
8
0
10
156.865262
20
60.238258
11
156.260809
21
60.429718
0
LINE
8
0
10
156.260809
20
60.429718
11
155.701990
21
60.838610
0
LINE
8
0
10
155.701990
20
60.838610
11
155.702000
21
60.838600
 0 
ENDSEC
 0 
EOF